<svg width="128" height="40" viewBox="0 0 128 40" fill="none" xmlns="http://www.w3.org/2000/svg">
<path d="M84.3375 16.4902L79.8616 14.37C76.485 12.7995 73.8152 10.9935 73.8152 7.93101C73.8152 4.71149 76.7206 2.90542 80.4113 2.90542C87.1644 2.90542 90.3054 8.71626 91.6403 15.3909H93.1323V2.27722C90.698 1.2564 86.4577 0 81.9032 0C76.0139 0 68.554 2.98394 68.554 10.0512C68.554 15.862 72.0876 18.6104 77.2703 21.0447L81.7462 23.1648C85.6724 25.0494 88.4208 27.0125 88.4208 30.075C88.4208 34.6294 84.416 36.2785 80.8039 36.2785C75.3072 36.2785 71.695 33.8442 70.4386 27.8763H68.9467V29.1327C68.9467 35.3362 66.5909 35.5717 65.6486 35.5717C63.8425 35.5717 62.9002 34.1583 62.9788 30.5462L63.2929 12.0928C63.4499 2.59132 57.6391 0.0785248 51.043 0.0785248C41.8556 0.0785248 34.5528 6.83166 34.3957 15.3909H41.9341C41.6985 7.22428 42.7194 2.90542 49.394 2.90542C54.1055 2.90542 56.6183 5.41821 56.6183 12.8781V14.4486C51.4356 16.7258 47.5094 18.5319 45.6248 19.4742C38.1649 22.9292 34.1602 25.6776 34.1602 30.2321C34.1602 35.8858 40.128 39.5765 45.3892 39.5765C47.745 39.5765 49.7081 39.1839 51.2 38.1631C53.0846 37.0637 54.9692 35.5717 56.4612 34.0798C56.8538 40.0477 65.8842 41.2255 69.0252 36.9067C72.0091 38.5557 76.7991 39.5765 80.3328 39.5765C87.3215 39.5765 94.0746 35.4932 94.0746 28.426C94.0746 21.9084 90.2269 19.3171 84.3375 16.4902ZM56.2256 32.1167C54.2625 34.0798 52.0638 35.5717 49.4725 35.5717C45.0751 35.5717 42.2482 31.724 42.0126 28.1119C42.0126 25.2065 43.5046 23.4004 46.41 21.5943C47.5879 20.9661 50.5718 19.1601 56.4612 17.0399L56.2256 32.1167Z" fill="#0F3E17"/>
<path d="M31.6455 15.3909C30.8603 4.86854 24.4212 0 17.354 0C7.85248 0 0 8.8733 0 19.9453C0 31.0173 5.33969 39.5765 16.7258 39.5765C25.1279 39.5765 30.075 33.0589 31.4099 27.8763H29.918C28.3475 30.3106 24.6568 33.4516 20.1024 33.4516C10.9935 33.4516 6.36051 25.7561 6.36051 15.5479V15.3909H31.6455ZM15.5479 2.51279C20.1024 2.51279 23.0078 6.04641 23.0078 12.564H6.43903C7.38133 5.41821 11.4646 2.51279 15.5479 2.51279Z" fill="#0F3E17"/>
<path d="M116.452 33.4516C107.343 33.4516 102.71 25.7561 102.71 15.5479V15.3909H127.995C127.21 4.86854 120.771 0 113.704 0C104.202 0 96.3496 8.8733 96.3496 19.9453C96.3496 31.0173 101.689 39.5765 113.075 39.5765C121.478 39.5765 126.425 33.0589 127.76 27.8763H126.268C124.697 30.3106 121.006 33.4516 116.452 33.4516ZM111.898 2.51279C116.452 2.51279 119.357 6.04641 119.357 12.564H102.789C103.731 5.41821 107.814 2.51279 111.898 2.51279Z" fill="#0F3E17"/>
</svg>
