<svg width="548" height="285" viewBox="0 0 548 285" fill="none" xmlns="http://www.w3.org/2000/svg">
<path d="M-46 484.015C233.058 484.015 251.654 56.5683 593.505 56.5683" stroke="#0F3E17" stroke-width="3"/>
<path d="M-46 447.362C233.058 447.362 251.654 19.9152 593.505 19.9152" stroke="#0F3E17" stroke-width="3"/>
<path d="M-46 410.71C233.058 410.71 251.654 -16.7374 593.505 -16.7374" stroke="#0F3E17" stroke-width="3"/>
<path d="M-46 374.057C233.058 374.057 251.654 -53.3897 593.505 -53.3897" stroke="#0F3E17" stroke-width="3"/>
<path d="M-46 337.405C233.058 337.405 251.654 -90.0421 593.505 -90.0421" stroke="#0F3E17" stroke-width="3"/>
<path d="M-46 300.752C233.058 300.752 251.654 -126.695 593.505 -126.695" stroke="#0F3E17" stroke-width="3"/>
<path d="M-46 264.099C233.058 264.099 251.654 -163.348 593.505 -163.348" stroke="#0F3E17" stroke-width="3"/>
<path d="M-46 227.447C233.058 227.447 251.654 -200 593.505 -200" stroke="#0F3E17" stroke-width="3"/>
</svg>
