<svg width="111" height="22" viewBox="0 0 111 22" fill="none" xmlns="http://www.w3.org/2000/svg">
<path d="M-0.455566 19.5893C0.425134 19.5893 1.24546 19.5271 2.09629 17.4028L8.68567 1.06348H10.5989L16.9163 16.9167C17.736 18.9513 18.435 19.5893 19.4981 19.5893V20.9586H12.2085V19.6802C14.0004 19.5893 14.7603 18.9818 14.0309 17.0984L12.7861 13.8794H5.4666L4.28403 16.9466C3.6162 18.6775 3.91931 19.6802 5.8027 19.6802V20.9555H-0.455566V19.5893ZM12.1481 12.2095L9.14127 4.34354L6.10456 12.2095H12.1481Z" fill="#0F3E17"/>
<path d="M21.3237 20.4092V3.03733L18.9854 2.61409V1.64065L23.1156 0H23.8445V9.3846C25.3936 7.53232 26.6079 6.80287 28.3693 6.80287C31.6799 6.80287 33.9268 9.41696 33.9268 13.302C33.9268 17.5841 31.1633 21.2893 26.2712 21.2893C24.5846 21.2619 22.9132 20.9645 21.3206 20.4086M27.0909 19.953C29.5183 19.953 31.1608 17.6146 31.1608 14.2437C31.1608 11.0246 29.6726 8.868 27.061 8.868C26.4366 8.8692 25.8209 9.01517 25.2623 9.29444C24.7038 9.57372 24.2176 9.97868 23.842 10.4775V16.7346C23.8235 17.1648 23.8952 17.5942 24.0524 17.9951C24.2095 18.3961 24.4488 18.7598 24.7547 19.0628C25.0607 19.3659 25.4266 19.6017 25.829 19.7551C26.2314 19.9085 26.6615 19.9761 27.0915 19.9536" fill="#0F3E17"/>
<path d="M37.8098 19.8315L36.2308 21.1678H35.6843L35.3501 16.1569H36.565C37.719 18.7087 39.2986 19.801 41.2723 19.801C42.7604 19.801 43.8241 19.0722 43.8241 17.7664C43.8241 16.9467 43.399 16.1264 41.9109 15.5494L39.4511 14.6077C37.0822 13.6965 35.9283 12.5426 35.9283 10.6897C35.9283 8.2903 37.9324 6.77164 40.3623 6.77164C40.9528 6.75238 41.5401 6.86533 42.0814 7.10224C42.6226 7.33915 43.1041 7.69403 43.4905 8.14093L45.0695 6.865H45.5861V11.36H44.37C43.3679 8.87038 42.153 8.2623 40.7557 8.2623C39.1766 8.2623 38.2661 9.0515 38.2661 10.1756C38.2661 11.0258 38.7826 11.6637 40.1183 12.1498L42.8214 13.1214C45.0079 13.9106 46.1924 15.1865 46.1924 17.0998C46.1924 19.4687 44.37 21.2911 41.576 21.2911C40.1818 21.295 38.8373 20.7739 37.8098 19.8315Z" fill="#0F3E17"/>
<path d="M50.236 17.1901L50.3269 8.9601H47.958V7.28957H49.537L52.1791 3.979H52.7561V7.28957H57.0992V8.9601H52.7561V16.6157C52.7561 18.3466 53.5459 19.2578 55.064 19.2578C55.9361 19.2312 56.7682 18.8855 57.4024 18.2862L57.8579 18.8327C56.9467 20.2598 55.6714 21.26 54.0918 21.26C51.7839 21.26 50.2043 20.0152 50.2329 17.1901" fill="#0F3E17"/>
<path d="M61.3205 17.7672V10.0226L59.2554 9.59752V8.68632L62.8697 7.04629H63.8412V9.66038C65.7545 7.53425 66.7566 6.95728 67.7891 6.95728C67.9963 6.93936 68.2049 6.9644 68.4019 7.03084C68.5989 7.09728 68.78 7.20369 68.934 7.3434C69.0879 7.4831 69.2114 7.6531 69.2966 7.84274C69.3818 8.03237 69.427 8.23756 69.4292 8.44545C69.4021 8.84794 69.2702 9.23634 69.0464 9.572C68.8227 9.90766 68.515 10.1789 68.1539 10.3587L65.9674 9.11391C65.1524 9.49331 64.4276 10.042 63.8412 10.7234V18.0709C63.8412 19.4072 64.2664 19.7414 65.9674 19.7414H66.423V20.9564H59.1035V19.7396C60.8649 19.7396 61.3205 19.4053 61.3205 17.7653" fill="#0F3E17"/>
<path d="M77.6603 18.9515C76.3533 20.6526 75.1707 21.2899 73.8338 21.2899C73.422 21.3088 73.0108 21.2416 72.6264 21.0926C72.242 20.9436 71.8929 20.7161 71.6014 20.4246C71.3099 20.1331 71.0824 19.784 70.9334 19.3996C70.7844 19.0152 70.7172 18.604 70.7361 18.1922C70.7361 16.4003 71.8595 15.3373 74.0466 14.4578L77.6304 13.0605V11.8779C77.6304 10.0257 76.7497 8.9321 75.0163 8.9321C73.8014 8.9321 72.7085 9.53956 71.524 11.1491L70.522 10.4813C72.223 7.71779 74.1058 6.80908 75.958 6.80908C78.5099 6.80908 80.1493 8.57048 80.1493 11.5163V18.1312C80.1493 18.8296 80.392 19.3138 81.1819 19.3138C81.4342 19.2996 81.6808 19.2329 81.9059 19.1179C82.131 19.0029 82.3296 18.8421 82.4889 18.6459L82.6713 19.4053C81.6082 20.8324 80.8794 21.288 79.9682 21.288C78.5989 21.288 77.8421 20.2555 77.6603 18.9497M75.0786 19.2229C76.0394 19.1791 76.9493 18.7785 77.6304 18.0995V14.6707L75.3524 15.1873C73.8948 15.552 73.2263 16.3698 73.2263 17.4951C73.2186 17.735 73.2623 17.9738 73.3544 18.1954C73.4464 18.4171 73.5848 18.6165 73.7601 18.7804C73.9355 18.9443 74.1438 19.0688 74.3712 19.1456C74.5986 19.2225 74.8398 19.2499 75.0786 19.226" fill="#0F3E17"/>
<path d="M83.0423 14.5783C83.0277 13.5793 83.2102 12.5872 83.5792 11.6588C83.9483 10.7303 84.4966 9.88372 85.1931 9.16732C85.8895 8.45091 86.7202 7.87878 87.6379 7.4836C88.5555 7.08843 89.542 6.87797 90.541 6.86426C92.8495 6.86426 94.3072 7.86633 94.3072 9.08126C94.265 9.49325 94.0762 9.87637 93.7752 10.1607C93.4741 10.4451 93.0809 10.6118 92.6672 10.6304L90.0531 8.10969C87.5933 8.41342 85.5886 10.5091 85.5886 13.7281C85.5886 16.4312 86.9858 18.9215 90.2049 18.9215C91.9053 18.9215 93.1813 18.2536 94.2443 16.4318L95.0037 17.0698C93.6674 20.1065 91.5113 21.2909 89.1425 21.2909C85.4983 21.2909 83.0386 18.1932 83.0386 14.5789" fill="#0F3E17"/>
<path d="M98.255 17.1901L98.3459 8.9601H95.9771V7.28957H97.5561L100.198 3.979H100.775V7.28957H105.118V8.9601H100.775V16.6157C100.775 18.3466 101.565 19.2578 103.083 19.2578C103.955 19.2312 104.787 18.8855 105.421 18.2862L105.877 18.8327C104.966 20.2598 103.691 21.26 102.111 21.26C99.803 21.26 98.2233 20.0152 98.2519 17.1901" fill="#0F3E17"/>
<path d="M107.947 19.7411C107.947 19.412 108.044 19.0902 108.226 18.8162C108.409 18.5422 108.668 18.3281 108.971 18.2008C109.275 18.0735 109.609 18.0387 109.932 18.1007C110.255 18.1628 110.553 18.3189 110.788 18.5495C111.023 18.78 111.184 19.0748 111.252 19.3969C111.32 19.7189 111.291 20.0538 111.169 20.3595C111.048 20.6652 110.838 20.9282 110.568 21.1153C110.297 21.3025 109.977 21.4056 109.648 21.4116C109.425 21.418 109.204 21.3793 108.997 21.298C108.789 21.2167 108.601 21.0944 108.442 20.9384C108.283 20.7824 108.157 20.596 108.072 20.3902C107.987 20.1845 107.945 19.9637 107.947 19.7411Z" fill="#0F3E17"/>
</svg>
