<svg width="110" height="35" viewBox="0 0 110 35" fill="none" xmlns="http://www.w3.org/2000/svg">
<path d="M95.2954 32.8757L95.8621 34.7477H87.6162L93.3582 21.2512H90.2886C89.9412 21.2502 89.6619 21.2502 89.4696 21.2512H89.2742C89.2402 21.2512 89.207 21.2521 89.173 21.2554C88.8111 21.2905 88.6424 21.4386 88.4274 21.6392L88.3766 21.4694L87.8224 19.642L95.8624 19.6357L90.1214 33.1323H93.3949C93.8262 33.1333 94.152 33.1333 94.3391 33.1323C94.4364 33.1313 94.4941 33.1304 94.5108 33.1281C94.8726 33.093 95.0414 32.9449 95.2564 32.7443L95.2958 32.8757H95.2954Z" fill="#0F3E17"/>
<path d="M45.7366 19.4429C41.4643 19.4429 37.9883 22.9189 37.9883 27.1912C37.9883 31.4636 41.4643 34.9396 45.7366 34.9396C50.009 34.9396 53.485 31.4636 53.485 27.1912C53.485 22.9189 50.009 19.4429 45.7366 19.4429ZM45.7366 33.2878C42.375 33.2878 39.6401 30.5528 39.6401 27.1912C39.6401 23.8296 42.375 21.0947 45.7366 21.0947C49.0983 21.0947 51.8332 23.8296 51.8332 27.1912C51.8332 30.5528 49.0983 33.2878 45.7366 33.2878Z" fill="#0F3E17"/>
<path d="M19.7104 19.5435C15.5491 19.5435 12.1636 22.929 12.1636 27.0903C12.1636 31.2515 15.5491 34.6371 19.7104 34.6371C23.8717 34.6371 27.2572 31.2515 27.2572 27.0903C27.2572 22.929 23.8717 19.5435 19.7104 19.5435ZM19.7104 33.0286C16.436 33.0286 13.7724 30.3647 13.7724 27.0903C13.7724 23.8158 16.4363 21.152 19.7104 21.152C22.9845 21.152 25.6487 23.8158 25.6487 27.0903C25.6487 30.3647 22.9848 33.0286 19.7104 33.0286Z" fill="#0F3E17"/>
<path d="M73.2173 19.6392C73.0292 19.8148 72.8161 20.0839 72.7011 20.329C72.6824 20.3674 72.667 20.4057 72.6545 20.4418C72.6526 20.449 72.6493 20.4562 72.6464 20.4634C72.6267 20.5162 72.609 20.5699 72.5926 20.6237C72.5926 20.6237 72.571 20.6961 72.5297 20.8295C72.5028 20.9173 72.4677 21.0334 72.4241 21.174L68.6627 33.5766C68.6512 33.6106 68.6411 33.6447 68.6325 33.6778C68.4959 34.1855 68.6552 34.5476 68.7764 34.744H66.1962C66.3171 34.5473 66.4774 34.1855 66.341 33.6765C66.3328 33.6434 66.3223 33.6103 66.3109 33.5762L63.0374 22.7818L59.763 33.5762H59.762L59.7433 33.6405C59.7433 33.6405 59.7423 33.6424 59.7423 33.6434C59.5893 34.1698 59.7528 34.543 59.8767 34.744H57.2964C57.4174 34.5473 57.5776 34.1855 57.4413 33.6765C57.4331 33.6434 57.4226 33.6103 57.4112 33.5762L53.4832 20.6237C53.4593 20.547 53.4337 20.4716 53.4036 20.3972C53.4026 20.3953 53.4016 20.392 53.4006 20.39C53.2797 20.1295 53.05 19.8161 52.8599 19.6392H55.2635C55.1321 19.8407 54.9459 20.1347 55.0793 20.6207C55.0845 20.6384 55.0898 20.6548 55.0947 20.6725L56.8386 26.4227L58.5854 32.1781L58.5874 32.1699L58.5904 32.1781L60.5604 25.681V25.68L62.0001 20.935H61.9991C62.0808 20.6601 62.1296 20.4923 62.1345 20.4634C62.2037 20.1065 62.1096 19.903 61.9782 19.6392H63.6804V19.6401L67.4845 32.1781L67.4865 32.1699L67.4894 32.1781L69.4594 25.681V25.68L70.8992 20.935C70.9798 20.6601 71.0283 20.4923 71.0345 20.4634C71.1037 20.1065 71.0096 19.903 70.8782 19.6392H73.2173Z" fill="#0F3E17"/>
<path d="M34.8607 34.7531C34.8918 34.5794 34.9312 34.3496 34.747 34.0042C34.7181 33.9504 34.6841 33.8934 34.6434 33.8334C34.628 33.8108 34.6113 33.7879 34.5949 33.7653L31.4984 29.6502L30.3091 28.078H31.8544C33.7667 28.078 35.3821 26.5131 35.35 24.601C35.3179 22.7434 33.7975 21.2417 31.932 21.2417L30.3094 21.2443V33.8567C30.3094 33.8744 30.3094 33.9003 30.3104 33.9311C30.3104 33.9488 30.3114 33.9671 30.3124 33.9858C30.3301 34.2516 30.4716 34.5597 30.6175 34.7553H28.4072C28.4921 34.6426 28.5747 34.4925 28.6327 34.3345C28.6471 34.2972 28.6596 34.2601 28.6701 34.2218C28.7022 34.1258 28.7104 34.0625 28.7137 33.9891V33.9776C28.7156 33.9426 28.7156 33.9042 28.7166 33.8587V20.4758C28.7166 20.447 28.7146 20.4168 28.7114 20.3857C28.7104 20.3752 28.7094 20.364 28.7084 20.3526C28.6969 20.247 28.6733 20.1438 28.638 20.0435L28.4993 19.6515H30.3091V19.6525L31.8334 19.6499C34.4727 19.6499 36.7285 21.6534 36.9271 24.2844C37.107 26.6527 35.5722 28.803 33.3547 29.4617L37.3282 34.7527H34.8607V34.7531Z" fill="#0F3E17"/>
<path d="M76.2881 33.95C76.2986 34.221 76.4444 34.5416 76.5942 34.7421H74.3872C74.5373 34.5416 74.6832 34.221 74.6933 33.95V20.4328C74.6828 20.1617 74.537 19.8422 74.3872 19.6406H76.5942C76.4441 19.8422 76.2982 20.1617 76.2881 20.4328V33.95Z" fill="#0F3E17"/>
<path d="M9.12173 33.8446V29.5722H2.09733V33.8446L2.10159 33.919C2.10159 33.9387 2.10258 33.9584 2.10487 33.979C2.12322 34.2438 2.26317 34.5489 2.40901 34.7433H0.195801C0.281668 34.6296 0.365241 34.4775 0.422268 34.3172L0.441932 34.2563C0.483227 34.1239 0.504857 33.9852 0.504857 33.8466V20.4637C0.504857 20.4346 0.502891 20.4048 0.499614 20.3736C0.49863 20.3635 0.497647 20.352 0.496336 20.3405C0.461268 20.0911 0.330829 19.8181 0.197439 19.6392H2.40442C2.27005 19.8181 2.13961 20.0931 2.10553 20.3425C2.10454 20.353 2.10356 20.3635 2.10225 20.3726C2.09897 20.4038 2.09701 20.4336 2.09701 20.4637V28.0335H9.1214V20.4637C9.1214 20.4336 9.11943 20.4038 9.11616 20.3726C9.11485 20.3635 9.11386 20.353 9.11288 20.3425C9.07879 20.0934 8.94835 19.8181 8.81398 19.6392H11.021C10.8876 19.8181 10.7571 20.0911 10.7221 20.3405C10.7208 20.352 10.7198 20.3635 10.7188 20.3736C10.7155 20.4048 10.7135 20.4346 10.7135 20.4637V33.8466C10.7135 33.9852 10.7352 34.1235 10.7765 34.2563L10.7961 34.3172C10.8532 34.4775 10.9371 34.6296 11.0226 34.7433H8.80939C8.95524 34.5489 9.09485 34.2435 9.11353 33.979C9.11583 33.9584 9.11681 33.9387 9.11681 33.919L9.12107 33.8446H9.12173Z" fill="#0F3E17"/>
<path d="M86.5909 19.6353V21.5486C86.4077 21.4113 86.1426 21.2844 85.8791 21.2467C85.8699 21.2454 85.8604 21.2441 85.8509 21.2431C85.8263 21.2405 85.8017 21.2382 85.7768 21.2369C85.7752 21.2369 85.7736 21.2369 85.7716 21.2366C85.7467 21.2353 85.7214 21.2346 85.6965 21.2346H83.0491V33.9466C83.0592 34.218 83.2044 34.5398 83.3558 34.7414H81.1466C81.298 34.5398 81.4432 34.218 81.453 33.9466V21.2346H78.8055C78.7806 21.2346 78.7554 21.2353 78.7305 21.2366C78.7288 21.2366 78.7269 21.2369 78.7252 21.2369C78.7003 21.2382 78.6757 21.2405 78.6512 21.2431C78.6417 21.2441 78.6322 21.2454 78.623 21.2467C78.3595 21.2844 78.094 21.4113 77.9111 21.5486V19.6353H86.5909Z" fill="#0F3E17"/>
<path d="M11.4525 15.2629C11.2581 15.082 11.0212 14.7572 10.9032 14.4934C10.9022 14.4905 10.9012 14.4882 10.8999 14.4872C10.8835 14.4488 10.8701 14.4128 10.8586 14.3774C10.8452 14.3381 10.8317 14.2977 10.8193 14.2574L6.54393 0.161133H4.50016C4.63158 0.424961 4.72564 0.628814 4.65616 0.985392C4.60143 1.2679 0.624667 14.2781 0.624667 14.2781C0.60828 14.3318 0.590583 14.3856 0.570918 14.4387C0.567969 14.4459 0.564691 14.4531 0.562725 14.4603C0.550271 14.4964 0.534867 14.5347 0.516186 14.573C0.401478 14.8182 0.188121 15.0869 0 15.2629H2.40461C2.2745 15.0614 2.08736 14.7677 2.22042 14.2814C2.22566 14.264 2.23091 14.2473 2.23582 14.2296L3.48844 10.1001L7.96041 10.1011L9.2127 14.2296C9.21794 14.2473 9.22318 14.2637 9.2281 14.2814C9.36149 14.7674 9.17533 15.0614 9.04391 15.2629H11.4525ZM3.95513 8.56333L4.44674 6.94562V6.94365L4.44772 6.94037V6.93906L5.72492 2.72666L7.49535 8.56267H3.95513V8.56333Z" fill="#0F3E17"/>
<path d="M49.4057 1.75507V6.91529H54.4332C54.7082 6.91102 55.0402 6.76223 55.246 6.6082V8.80961C55.0402 8.65557 54.7082 8.50645 54.4332 8.50252H49.4057V13.6693H55.4145C55.6917 13.6693 56.03 13.5192 56.2387 13.3622V15.2611H47.5068C47.6641 15.051 47.8139 14.7141 47.8139 14.4369L47.8149 14.4847V1.03568L47.8139 0.987833C47.8139 0.710568 47.6638 0.373654 47.5068 0.163574H56.2387V2.06248C56.03 1.90517 55.6917 1.75539 55.4145 1.75539H49.4057V1.75507Z" fill="#0F3E17"/>
<path d="M90.6606 1.75507V6.91529H95.6881C95.9631 6.91102 96.2951 6.76223 96.5009 6.6082V8.80961C96.2951 8.65557 95.9631 8.50645 95.6881 8.50252H90.6606V13.6693H96.6694C96.9466 13.6693 97.2849 13.5192 97.4936 13.3622V15.2611H88.7617C88.919 15.051 89.0688 14.7141 89.0688 14.4369L89.0698 14.4847V1.03568L89.0688 0.987833C89.0688 0.710568 88.9187 0.373654 88.7617 0.163574H97.4936V2.06248C97.2849 1.90517 96.9466 1.75539 96.6694 1.75539H90.6606V1.75507Z" fill="#0F3E17"/>
<path d="M59.6279 1.75507V6.91529H64.6554C64.9304 6.91102 65.2624 6.76223 65.4682 6.6082V8.80961C65.2624 8.65557 64.9304 8.50645 64.6554 8.50252H59.6279V13.6693H65.6367C65.9139 13.6693 66.2521 13.5192 66.4609 13.3622V15.2611H57.729C57.8863 15.051 58.0361 14.7141 58.0361 14.4369L58.0371 14.4847V1.03568L58.0361 0.987833C58.0361 0.710568 57.886 0.373654 57.729 0.163574H66.4609V2.06248C66.2521 1.90517 65.9139 1.75539 65.6367 1.75539H59.6279V1.75507Z" fill="#0F3E17"/>
<path d="M28.6042 0.1654L26.6496 0.160156H24.6235L24.7622 0.55213C24.7972 0.652418 24.8212 0.755983 24.8326 0.861514C24.8336 0.872985 24.8346 0.884128 24.8356 0.894616C24.8385 0.925751 24.8408 0.955575 24.8408 0.984743V14.3676C24.8408 14.5072 24.8192 14.6448 24.7779 14.7782L24.75 14.8683C24.7481 14.8713 24.7471 14.8746 24.7458 14.8775L24.6239 15.2643H28.6046C32.7868 15.2643 36.1897 11.8646 36.1897 7.70598C36.1897 3.5483 32.7871 0.1654 28.6046 0.1654H28.6042ZM28.6042 13.6577H26.4333V1.75493H28.6042C31.9108 1.75493 34.6005 4.42434 34.6005 7.70598C34.6005 10.9876 31.9104 13.658 28.6042 13.658V13.6577Z" fill="#0F3E17"/>
<path d="M109.323 15.2678H107.793C107.95 15.0591 108.1 14.7208 108.1 14.4436V9.47311C107.14 6.62999 104.726 3.77867 101.083 2.01545V14.4416C101.083 14.7199 101.234 15.0571 101.391 15.2659H99.1836C99.3409 15.0571 99.4907 14.7199 99.4907 14.4416V0.988322C99.4907 0.711056 99.3406 0.372831 99.1836 0.164062H101.014C104.153 1.51172 106.549 3.5722 108.099 5.85063V1.02863C108.099 1.0152 108.099 1.00176 108.098 0.988322C108.098 0.970624 108.097 0.953254 108.096 0.935556C108.095 0.917858 108.093 0.899505 108.091 0.881807C108.06 0.628466 107.928 0.347268 107.791 0.164062H110C109.873 0.332519 109.751 0.584877 109.709 0.821831C109.709 0.823798 109.709 0.826092 109.708 0.827075C109.702 0.857227 109.698 0.887051 109.697 0.915892C109.695 0.934573 109.694 0.953254 109.694 0.971607C109.693 0.990288 109.693 1.00897 109.693 1.02732V14.4432C109.693 14.7205 109.843 15.0587 110 15.2675H109.323L109.323 15.2678Z" fill="#0F3E17"/>
<path d="M22.4558 15.2683H20.9249C21.0822 15.0596 21.232 14.7213 21.232 14.4441V9.4736C20.2724 6.63047 17.8583 3.77916 14.2158 2.01594V14.4421C14.2158 14.7203 14.3659 15.0576 14.5229 15.2664H12.3159C12.4732 15.0576 12.623 14.7203 12.623 14.4421V0.98881C12.623 0.711544 12.4729 0.373319 12.3159 0.164551H14.1463C17.2851 1.51221 19.6815 3.57268 21.2317 5.85111V1.02912C21.2317 1.01568 21.2317 1.00225 21.2307 0.98881C21.2307 0.971112 21.2297 0.953742 21.2287 0.936044C21.2278 0.918346 21.2258 0.899993 21.2235 0.882295C21.1924 0.628954 21.06 0.347756 20.9236 0.164551H23.1326C23.0054 0.333007 22.8835 0.585365 22.8409 0.822319C22.8409 0.824286 22.8409 0.82658 22.8399 0.827563C22.8346 0.857715 22.8307 0.887539 22.8294 0.91638C22.8274 0.935061 22.8265 0.953742 22.8265 0.972095C22.8255 0.990776 22.8255 1.00946 22.8255 1.02781V14.4437C22.8255 14.721 22.9756 15.0592 23.1326 15.268H22.4551L22.4558 15.2683Z" fill="#0F3E17"/>
<path d="M43.829 15.2564C43.8601 15.0827 43.8994 14.853 43.7152 14.5076C43.6864 14.4538 43.6523 14.3968 43.6117 14.3368C43.5963 14.3142 43.5796 14.2912 43.5632 14.2686L40.4667 10.1536L39.2773 8.58141H40.8226C42.735 8.58141 44.3504 7.01646 44.3183 5.10444C44.2862 3.24683 42.7658 1.74514 40.9003 1.74514L39.2777 1.74776V14.3601C39.2777 14.3778 39.2777 14.4037 39.2787 14.4345C39.2787 14.4522 39.2796 14.4705 39.2806 14.4892C39.2983 14.755 39.4399 15.0631 39.5857 15.2587H37.3755C37.4604 15.146 37.543 14.9959 37.601 14.8379C37.6154 14.8006 37.6278 14.7635 37.6383 14.7252C37.6704 14.6291 37.6786 14.5659 37.6819 14.4925V14.481C37.6839 14.4459 37.6839 14.4076 37.6849 14.362V0.979218C37.6849 0.950377 37.6829 0.920225 37.6796 0.88909C37.6786 0.878603 37.6777 0.86746 37.6767 0.855989C37.6652 0.750458 37.6416 0.64722 37.6062 0.546933L37.4676 0.154959H39.2773V0.155942L40.8017 0.15332C43.4409 0.15332 45.6967 2.15678 45.8953 4.78785C46.0753 7.15608 44.5405 9.30636 42.323 9.96511L46.2965 15.2561H43.829V15.2564Z" fill="#0F3E17"/>
<path d="M76.8752 11.4906C76.0736 16.5099 69.4146 16.8019 67.5954 12.1569C67.4875 11.8888 67.3695 11.7518 67.1411 11.5761C67.6078 11.4142 68.7441 11.0229 69.1954 10.8669C69.1515 11.0718 69.1374 11.3254 69.1793 11.5686C69.7034 13.9309 72.6786 14.5553 74.2782 13.1853C75.6508 12.2031 75.6564 9.81357 74.3569 8.80644C73.5684 8.19521 72.1112 7.91401 71.0802 7.56824C68.5871 6.8351 67.1631 3.91201 68.9876 1.54247C70.9235 -0.767092 74.3471 -0.351194 75.9058 1.90823C76.0988 2.16943 76.2738 2.46276 76.6494 2.74003C76.267 2.92192 75.0851 3.48398 74.7227 3.65703C74.7404 3.47087 74.7309 3.21393 74.6181 2.93667C74.0816 1.863 72.8061 1.27471 71.3358 1.71945C69.5375 2.22318 69.2871 4.37707 70.5391 5.49957C71.3571 6.26057 72.5203 6.41821 73.6257 6.72301C75.662 7.15366 77.1237 9.3318 76.8752 11.4903V11.4906Z" fill="#0F3E17"/>
<path d="M87.5745 11.4906C86.7728 16.5099 80.1138 16.8019 78.2946 12.1569C78.1867 11.8888 78.0688 11.7518 77.8403 11.5761C78.307 11.4142 79.4433 11.0229 79.8946 10.8669C79.8507 11.0718 79.8366 11.3254 79.8785 11.5686C80.4026 13.9309 83.3778 14.5553 84.9775 13.1853C86.35 12.2031 86.3556 9.81357 85.0561 8.80644C84.2676 8.19521 82.8105 7.91401 81.7794 7.56824C79.2863 6.8351 77.8623 3.91201 79.6868 1.54247C81.6227 -0.767092 85.0463 -0.351194 86.605 1.90823C86.798 2.16943 86.9731 2.46276 87.3486 2.74003C86.9662 2.92192 85.7844 3.48398 85.4219 3.65703C85.4396 3.47087 85.4301 3.21393 85.3173 2.93667C84.7808 1.863 83.5053 1.27471 82.035 1.71945C80.2367 2.22318 79.9864 4.37707 81.2383 5.49957C82.0563 6.26057 83.2195 6.41821 84.3249 6.72301C86.3612 7.15366 87.8229 9.3318 87.5745 11.4903V11.4906Z" fill="#0F3E17"/>
</svg>
