<svg width="110" height="21" viewBox="0 0 110 21" fill="none" xmlns="http://www.w3.org/2000/svg">
<path d="M17.4971 15.1675C17.4971 16.539 17.4971 17.9105 17.4971 19.282C17.5117 19.6273 17.4003 19.9661 17.1835 20.2352C16.9666 20.5044 16.6593 20.6854 16.3188 20.7445C15.8674 20.8247 15.405 20.8196 14.9555 20.7296C14.5499 20.6382 14.1969 20.3901 13.9736 20.0395L11.9164 17.0715C10.4482 14.9469 8.98195 13.0579 7.5082 10.9371C7.39708 10.7863 7.26767 10.65 7.12294 10.5312C7.06284 10.4826 6.99299 10.4476 6.91812 10.4285C6.84318 10.4095 6.76502 10.4068 6.68902 10.4209C6.58716 10.4251 6.48963 10.4633 6.41201 10.5294C6.33438 10.5955 6.28117 10.6857 6.26078 10.7856C6.2197 10.9901 6.19714 11.198 6.19343 11.4065C6.19343 13.7368 6.19343 15.8296 6.19343 18.1599C6.19343 18.5901 6.19341 19.0221 6.17471 19.4523C6.13356 20.2003 5.75578 20.5912 5.00769 20.6847C4.81738 20.7107 4.62564 20.7244 4.43356 20.7258C3.4386 20.7258 2.44364 20.7258 1.4412 20.7258C1.11224 20.7341 0.790893 20.6261 0.533666 20.4209C0.276439 20.2157 0.0997931 19.9263 0.0347863 19.6038C0.0113798 19.4911 6.12358e-05 19.3764 0.00108936 19.2615C0.00108936 16.6319 0.00108936 14.0024 0.00108936 11.3728C-0.00657432 11.1779 0.0262651 10.9835 0.0974772 10.8019C0.168689 10.6203 0.276745 10.4554 0.414859 10.3177C0.552973 10.1799 0.718158 10.0723 0.899952 10.0015C1.08174 9.93073 1.2762 9.89841 1.47111 9.90661H4.21097C4.32654 9.9169 4.44299 9.90173 4.55205 9.86216C4.66111 9.82252 4.76014 9.75951 4.84217 9.67746C4.92421 9.59541 4.98723 9.49641 5.02682 9.38733C5.06641 9.27824 5.08161 9.16184 5.0713 9.04632C5.0713 6.59131 5.0713 4.13632 5.0713 1.68134C5.06093 1.31543 5.17466 0.956781 5.39402 0.663735C5.61338 0.370689 5.92545 0.160487 6.27946 0.0673262C6.36492 0.0404729 6.45361 0.0253744 6.54314 0.0224425C6.96582 0.0224425 7.38848 0.00186999 7.8093 0.0224425C8.04326 0.0317763 8.27194 0.0946194 8.47785 0.206149C8.68369 0.317679 8.86127 0.474927 8.99692 0.665801C10.3397 2.4313 14.8339 8.12803 15.7466 9.32493C15.9282 9.58836 16.2052 9.77076 16.519 9.83363C16.5701 9.84752 16.6235 9.85077 16.676 9.84325C16.7284 9.8358 16.7788 9.81764 16.8239 9.78993C16.8691 9.76229 16.9082 9.7257 16.9387 9.6824C16.9692 9.63911 16.9906 9.58999 17.0015 9.53815C17.0346 9.41633 17.0503 9.29037 17.0482 9.16414C17.0482 6.64679 17.0482 4.36698 17.0482 1.84778C17.0272 1.43534 17.148 1.02814 17.3905 0.693856C17.5309 0.496054 17.7142 0.332466 17.9266 0.215252C18.139 0.0980397 18.3751 0.0302193 18.6174 0.0168321C19.0512 -0.00561069 19.4888 -0.00561069 19.9265 0.0168321C20.1843 0.0263089 20.436 0.097495 20.6605 0.224413C20.8851 0.351332 21.0759 0.530276 21.217 0.746217C21.9071 1.73557 22.5878 2.7324 23.2743 3.72549L28.4735 11.2793C29.0426 12.1138 29.3907 13.079 29.4853 14.0847C29.5264 14.4699 29.5376 14.859 29.5414 15.2461C29.5414 16.2972 29.5414 17.3463 29.5414 18.3974C29.5523 18.7129 29.5473 19.0288 29.5264 19.3438C29.4826 19.7193 29.3092 20.0678 29.0361 20.3293C28.763 20.5908 28.4073 20.7489 28.0302 20.7764C27.7106 20.7932 27.3903 20.7932 27.0708 20.7764C26.8058 20.7666 26.5471 20.6935 26.3161 20.5634C26.0851 20.4333 25.8886 20.2498 25.7429 20.0282C25.1968 19.2671 19.171 11.4065 18.7445 10.8454C18.6542 10.7217 18.5436 10.6142 18.4173 10.5275C18.3427 10.4682 18.2537 10.4297 18.1595 10.4159C18.0653 10.402 17.969 10.4133 17.8806 10.4486C17.7921 10.4839 17.7145 10.542 17.6557 10.617C17.597 10.6919 17.559 10.7811 17.5457 10.8754C17.5089 11.0367 17.4907 11.2017 17.4915 11.3673C17.4915 12.7176 17.4915 13.8266 17.4915 15.1769L17.4971 15.1675Z" fill="#0F3E17"/>
<path d="M37.4053 3.27448H37.583C38.967 3.27448 40.3509 3.27448 41.7348 3.27448C41.7884 3.2671 41.8427 3.28011 41.8871 3.31095C41.9314 3.3418 41.9626 3.3882 41.9743 3.44094C42.4817 4.82865 42.9916 6.21573 43.5041 7.60221L44.7889 11.0808L45.8886 14.0732C46.1074 14.666 46.3244 15.2589 46.547 15.8499C46.5772 15.9036 46.6157 15.9522 46.661 15.9939C46.7069 15.9527 46.7456 15.904 46.7752 15.8499C47.224 14.6511 47.6653 13.4504 48.1105 12.2497L49.5187 8.44752L50.8073 4.96891C51.0006 4.44899 51.1926 3.92844 51.3833 3.40728C51.3943 3.36754 51.4193 3.33313 51.4537 3.31043C51.4881 3.28773 51.5296 3.27828 51.5703 3.28384C53.008 3.28384 54.4468 3.28384 55.8869 3.28384C56.0627 3.28384 56.0496 3.38109 56.0478 3.49517V20.1926C56.0478 20.475 56.0757 20.4563 55.7765 20.4563C54.8414 20.4563 53.8914 20.4563 52.9488 20.4563C52.7767 20.4563 52.7374 20.4095 52.7374 20.2449C52.7374 16.3798 52.7374 12.5147 52.7374 8.6495C52.7291 8.56799 52.7116 8.4877 52.6851 8.41012C52.6239 8.46846 52.5721 8.53601 52.5317 8.61027C51.9669 10.0728 51.4102 11.5415 50.8616 13.0165C50.3791 14.2983 49.8953 15.5781 49.4103 16.8561C48.9777 17.9969 48.5462 19.1378 48.116 20.2786C48.1048 20.3311 48.0745 20.3775 48.0309 20.409C47.9874 20.4404 47.9338 20.4546 47.8804 20.4488C47.0687 20.4488 46.2589 20.4488 45.4491 20.4488C45.3959 20.4584 45.3411 20.4473 45.2959 20.4177C45.2507 20.3881 45.2185 20.3424 45.206 20.2898C44.6992 18.9245 44.1811 17.5649 43.6686 16.2015C43.1562 14.8381 42.6419 13.4766 42.1294 12.1132C41.6993 10.9724 41.2692 9.83088 40.839 8.6888C40.7985 8.61433 40.7489 8.54522 40.6913 8.48309C40.6644 8.56061 40.6461 8.6409 40.637 8.72247C40.637 12.5464 40.637 16.371 40.637 20.1963C40.637 20.4469 40.6371 20.4469 40.3864 20.4469H37.5811C37.5269 20.4469 37.4745 20.4469 37.4146 20.4376L37.4053 3.27448Z" fill="#0F3E17"/>
<path d="M69.6852 20.4357C69.61 20.4357 69.5558 20.4451 69.4982 20.4451C68.6093 20.4451 67.7213 20.4451 66.8348 20.4451C66.6889 20.4451 66.6478 20.4021 66.6478 20.2581C66.6478 19.7568 66.6478 19.2537 66.6478 18.7525C66.635 18.6838 66.613 18.6171 66.5822 18.5543C66.5376 18.6013 66.4987 18.6534 66.4663 18.7095C66.137 19.4282 65.5534 19.9998 64.828 20.3142C64.017 20.6978 63.1181 20.8573 62.2247 20.7761C61.3902 20.7326 60.582 20.4701 59.8812 20.015C59.4857 19.7563 59.147 19.4198 58.8859 19.0259C58.6249 18.6319 58.4467 18.189 58.3626 17.7239C58.1756 16.7682 58.2579 15.835 58.7834 14.984C59.1699 14.3884 59.7348 13.9301 60.3975 13.6749C61.3026 13.2858 62.2677 13.1793 63.2327 13.1138C64.0855 13.0552 64.9371 12.9929 65.7874 12.9267C65.9708 12.9188 66.1462 12.8494 66.2853 12.7296C66.4244 12.6098 66.5191 12.4468 66.5542 12.2666C66.6508 11.8568 66.5973 11.426 66.4034 11.0524C66.2095 10.6787 65.8882 10.3869 65.4976 10.2299C65.0233 10.0139 64.5042 9.91454 63.9837 9.93988C63.4631 9.96529 62.9563 10.1147 62.5052 10.3758C62.0436 10.6482 61.7012 11.0841 61.5457 11.597C61.4728 11.814 61.4728 11.8103 61.2428 11.784C60.6369 11.7036 60.029 11.6307 59.423 11.5559C59.2267 11.5316 59.0303 11.5035 58.8321 11.4886C58.6881 11.4792 58.6451 11.4212 58.6656 11.2791C58.7553 10.7567 58.9513 10.2582 59.2416 9.81474C59.8237 8.94808 60.6799 8.30203 61.6729 7.97999C62.9692 7.54222 64.3577 7.45258 65.6995 7.72008C66.5398 7.85491 67.336 8.18759 68.0225 8.69068C68.755 9.22425 69.2828 9.99246 69.5186 10.8677C69.6412 11.3255 69.7008 11.7981 69.694 12.2722V20.4451L69.6852 20.4357ZM66.5374 14.7914C66.4352 14.8231 66.3308 14.8475 66.225 14.8643C65.5069 14.9316 64.7887 14.9933 64.0706 15.0513C63.5425 15.0684 63.0188 15.1539 62.5127 15.3057C61.9291 15.5189 61.4129 15.9771 61.3905 16.7252C61.3755 17.4397 61.7085 18.0343 62.3799 18.3093C63.5132 18.76 64.5736 18.5543 65.5031 17.795C66.4326 17.0357 66.6253 15.9771 66.5617 14.8419C66.5557 14.8242 66.5475 14.8072 66.5374 14.7914Z" fill="#0F3E17"/>
<path d="M91.5057 15.1273H87.1701C86.9214 15.1273 86.9214 15.1273 86.9404 15.3668C86.9594 15.7831 87.0617 16.1914 87.2412 16.5676C87.4208 16.9437 87.6742 17.2801 87.9858 17.5567C88.4127 17.9269 88.9351 18.1687 89.4934 18.2544C89.9115 18.3292 90.3397 18.3292 90.7577 18.2544C91.2469 18.1786 91.7104 17.9833 92.106 17.6858C92.5024 17.3883 92.8188 16.9978 93.0282 16.5487C93.1386 16.328 93.138 16.328 93.3737 16.3935C94.0994 16.5955 94.8257 16.7956 95.5528 16.9938C95.7398 17.048 95.7601 17.0667 95.691 17.2538C95.0737 18.9146 93.8623 19.9264 92.1975 20.4444C91.2293 20.7419 90.2082 20.8224 89.2054 20.6801C87.2263 20.4107 85.6761 19.4756 84.6828 17.7064C84.3 17.0096 84.0466 16.2492 83.9348 15.4621C83.8121 14.6994 83.7959 13.9232 83.888 13.1561C84.1333 11.2017 84.9545 9.58587 86.6768 8.51981C87.3889 8.088 88.1844 7.81082 89.011 7.70627C89.7482 7.59549 90.4982 7.60376 91.2327 7.73059C93.0824 8.06348 94.4775 9.03976 95.3468 10.7229C95.794 11.6227 96.0413 12.6083 96.0724 13.6124C96.0894 14.0351 96.0724 14.4596 96.0724 14.8842C96.0724 15.1124 96.0636 15.1124 95.8407 15.1124L91.5057 15.1273ZM89.948 13.0289H92.7531C92.9679 13.0289 92.9774 13.0289 92.9591 12.8045C92.9591 12.7128 92.9272 12.6175 92.9103 12.5296C92.8033 11.8127 92.4204 11.1661 91.8425 10.7286C90.9068 10.0347 89.86 9.93745 88.7901 10.3545C87.6681 10.7847 87.1179 11.6637 86.9533 12.8307C86.9309 12.9897 86.9871 13.0402 87.1497 13.0383C88.0848 13.0252 89.0164 13.0289 89.948 13.0289Z" fill="#0F3E17"/>
<path d="M98.1943 20.4457V7.91522C98.2601 7.91522 98.3183 7.91522 98.3813 7.91522C99.2588 7.91522 100.136 7.91522 101.011 7.91522C101.187 7.91522 101.224 7.97132 101.221 8.1321C101.211 8.61838 101.221 9.10276 101.221 9.58715C101.23 9.64786 101.25 9.7066 101.279 9.76108C101.323 9.72184 101.387 9.6919 101.413 9.64142C102.01 8.56973 102.934 7.95817 104.122 7.72252C104.939 7.5534 105.786 7.58098 106.592 7.80295C107.286 7.97382 107.922 8.32426 108.438 8.81894C108.953 9.31369 109.329 9.93527 109.528 10.6214C109.711 11.2167 109.798 11.8372 109.786 12.4598C109.786 15.062 109.786 17.6628 109.786 20.2624V20.4495C109.709 20.4495 109.652 20.4588 109.599 20.4588C108.724 20.4588 107.847 20.4588 106.97 20.4588C106.811 20.4588 106.766 20.4158 106.767 20.2568C106.767 17.8879 106.767 15.5189 106.767 13.1499C106.793 12.5082 106.643 11.8717 106.332 11.3096C106.164 11.0203 105.933 10.7731 105.655 10.5867C105.377 10.4004 105.061 10.2799 104.729 10.2343C104.092 10.1112 103.433 10.1964 102.848 10.4774C102.071 10.8515 101.632 11.5004 101.392 12.3046C101.268 12.7677 101.211 13.2465 101.224 13.726C101.224 15.8917 101.224 18.0574 101.224 20.2232C101.224 20.4569 101.224 20.4569 100.993 20.4569H98.2079L98.1943 20.4457Z" fill="#0F3E17"/>
<path d="M70.3408 7.91482H70.5163C71.4649 7.91482 72.4128 7.91482 73.3614 7.91482C73.4149 7.90798 73.4691 7.92153 73.5131 7.9527C73.5565 7.98386 73.5877 8.03041 73.5985 8.08313C74.0436 9.29005 74.4922 10.4951 74.9434 11.6983C75.4557 13.0698 75.9679 14.445 76.4788 15.824C76.6082 16.1682 76.7335 16.5141 76.8663 16.8583C76.8962 16.9071 76.9327 16.9518 76.9747 16.9911C77.0154 16.9443 77.0737 16.9031 77.0926 16.8489C77.8129 14.9238 78.5297 12.9981 79.2432 11.0717C79.6172 10.0668 79.9912 9.06314 80.3652 8.0607C80.395 7.98217 80.4235 7.91482 80.5333 7.91672C81.532 7.91672 82.5307 7.91672 83.526 7.91672C83.5558 7.9199 83.5863 7.92492 83.6155 7.93162C83.5219 8.16728 83.4284 8.39358 83.339 8.61805C82.572 10.4882 81.8044 12.3529 81.0367 14.2119C80.3171 15.9574 79.5962 17.703 78.8726 19.4485C78.7554 19.7328 78.6402 20.0177 78.527 20.3032C78.5162 20.3485 78.4898 20.3882 78.4518 20.4149C78.4139 20.4415 78.3671 20.453 78.321 20.4472C77.4185 20.4472 76.5147 20.4472 75.6095 20.4472C75.5634 20.4542 75.5167 20.4439 75.478 20.4184C75.4394 20.3928 75.4116 20.3538 75.4001 20.3088C74.5518 18.2117 73.6967 16.1164 72.8335 14.023C72.0144 12.028 71.1945 10.0332 70.3747 8.03827C70.3632 7.99897 70.3578 7.96903 70.3408 7.91482Z" fill="#0F3E17"/>
</svg>
