<svg width="239" height="27" viewBox="0 0 239 27" fill="none" xmlns="http://www.w3.org/2000/svg">
<path d="M13.0962 0.583624L13.0998 0.58833L13.1068 0.596567L13.1304 0.624807L13.2092 0.728353C13.6183 1.2874 13.9811 1.87886 14.2941 2.49687C14.6753 3.25347 15.0636 4.21245 15.2884 5.2938C16.0171 4.63252 16.8312 4.07176 17.7087 3.62647C18.1801 3.38407 18.6667 3.17261 19.1655 2.99343C19.3517 2.92666 19.5401 2.86584 19.7302 2.81104L19.7655 2.80163L19.7761 2.7981H19.7797L19.782 2.79692L20.4998 2.61219L20.5386 3.20758L20.5669 3.20169L20.5798 3.39584V3.39937L20.581 3.40761L20.5822 3.43938L20.5869 3.56175C20.5968 4.23216 20.5492 4.90218 20.4445 5.56443C20.3951 5.87742 20.3268 6.21159 20.2374 6.56106C20.0939 7.19565 19.8942 7.81623 19.6408 8.41548C20.6375 8.33311 21.5705 8.41548 22.3366 8.54373C23.0113 8.65719 23.6753 8.82723 24.3216 9.05205C24.3734 9.07088 24.4157 9.08735 24.4428 9.09912L24.4769 9.11089L24.4875 9.11559L24.491 9.11677L25.1617 9.39211L25.0711 9.54154L25.077 9.5439L25.0841 9.54743H25.0864L25.0876 9.5486L25.277 9.62156L25.1664 9.791L25.1652 9.79217L25.1641 9.79453L25.1405 9.82982L25.0699 9.92984C24.5094 10.6889 23.8635 11.381 23.1449 11.9925C22.5198 12.6117 21.8221 13.153 21.0669 13.6046C21.893 14.1057 22.6501 14.7125 23.3191 15.4095C23.8341 15.8702 24.3095 16.3732 24.7405 16.9133C24.8611 17.0653 24.9768 17.2211 25.0876 17.3805L25.1064 17.4063L25.1111 17.4134V17.4158H25.1135L25.2253 17.5864L25.037 17.6593L25.1146 17.7864L24.444 18.0617H24.4416L24.4287 18.0676L24.3945 18.0806C24.2095 18.1504 24.0223 18.2144 23.8333 18.2724C23.3267 18.4268 22.8106 18.5483 22.2883 18.636C21.3646 18.7955 20.4241 18.835 19.4902 18.7536C19.8844 19.7067 20.1021 20.6504 20.2197 21.4446L20.2221 21.4564L20.2339 21.5235C20.3386 22.1861 20.3863 22.8565 20.3762 23.5273C20.3762 23.5803 20.3739 23.6215 20.3727 23.6497L20.3704 23.6815V23.6932L20.3562 23.8874L20.3398 23.8827L20.3033 24.4487L19.5843 24.2639H19.582L19.5679 24.2592L19.5326 24.2498C19.5043 24.2416 19.462 24.231 19.409 24.2145C18.7557 24.008 18.1208 23.747 17.5111 23.4344C16.6962 23.0197 15.9355 22.5063 15.246 21.9059C15.0339 22.8078 14.7139 23.6809 14.2929 24.5063C13.9987 25.0899 13.7046 25.5641 13.481 25.8924C13.3687 26.058 13.2514 26.22 13.1292 26.3784L13.1056 26.4066L13.0998 26.4149L13.0974 26.4184L13.0962 26.4196L12.6197 27.0032L12.142 26.4196L12.1384 26.416L12.1102 26.3784C11.9881 26.22 11.8707 26.0579 11.7584 25.8924C11.536 25.563 11.2406 25.0923 10.9453 24.5075C10.5037 23.644 10.1736 22.7279 9.96279 21.7812C9.23888 22.436 8.43131 22.9919 7.56122 23.4344C6.95112 23.7471 6.31585 24.0081 5.66209 24.2145C5.61032 24.231 5.56796 24.2416 5.53737 24.2498L5.50207 24.2592L5.48912 24.2639L5.34322 23.7038L5.48677 24.2639L4.76901 24.4487L4.73018 23.8768L4.69135 23.8874L4.6784 23.6932V23.6897L4.67723 23.6815L4.67605 23.6497C4.66839 23.4588 4.66682 23.2677 4.67134 23.0767C4.69465 22.173 4.82258 21.2751 5.05258 20.4009C5.19377 19.7997 5.38586 19.2116 5.62679 18.643C4.73265 18.7103 3.83363 18.6676 2.94989 18.5159C2.27506 18.4022 1.61103 18.2318 0.964862 18.0064C0.924319 17.9919 0.883919 17.977 0.843666 17.9617L0.809543 17.9476L0.796599 17.9429L0.795423 17.9417L0.124726 17.6676L0.200032 17.5417H0.194149L0.191796 17.5393L0 17.4664L0.111783 17.2957L0.249452 17.3852L0.112959 17.2957V17.2922L0.118843 17.2851L0.136493 17.2593L0.207092 17.1581C0.740606 16.4349 1.35137 15.7721 2.02856 15.1813C2.66159 14.5357 3.37176 13.9705 4.14302 13.4987C3.45941 13.0808 2.82408 12.5888 2.2486 12.0314C1.60001 11.4943 1.00855 10.8918 0.483608 10.2334C0.362823 10.0821 0.246672 9.92706 0.135316 9.76864L0.111783 9.73334V9.73216C0.111783 9.73216 0.125903 9.72039 0.248275 9.64038L0.110606 9.73099L0 9.56037L0.190619 9.48742H0.194149L0.202386 9.48389L0.214152 9.47918L0.123549 9.33327L0.794246 9.05676H0.800129L0.809543 9.05088L0.843666 9.03911L0.964862 8.99204C1.61105 8.76676 2.27508 8.59632 2.94989 8.48255C3.86893 8.32367 4.80456 8.28333 5.73387 8.36253C5.49639 7.79311 5.30746 7.20465 5.16907 6.60342C4.90378 5.57008 4.78495 4.5046 4.81607 3.4382V3.40761L4.81843 3.39937V3.39584L4.83137 3.20169L4.85961 3.20758L4.89962 2.61219L5.61738 2.79692H5.62326C5.62562 2.79928 5.63032 2.80045 5.63503 2.80163L5.66798 2.81104L5.79388 2.84634C6.44719 3.05249 7.08206 3.31305 7.69183 3.62529C8.51386 4.04363 9.28065 4.5626 9.97455 5.17025C10.1862 4.24237 10.5123 3.34437 10.9453 2.49687C11.2585 1.87877 11.6218 1.28729 12.0314 0.728353L12.1102 0.624807L12.1314 0.596567L12.1384 0.58833L12.1408 0.5848H12.142L12.6197 0L13.0962 0.583624Z" fill="#0F3E17"/>
<path d="M44.0727 16.3823C44.0727 18.7073 42.1759 20.6449 38.7698 20.6449C35.3638 20.6449 33.3651 18.7481 33.2223 15.9743H34.7723C34.9151 18.0547 36.2204 19.4008 38.7495 19.4008C40.8298 19.4008 42.4614 18.3402 42.4614 16.5862C42.4614 15.0769 41.6048 14.3835 39.5245 13.9552L37.6685 13.5881C35.7309 13.2006 33.6914 12.3032 33.6914 9.75373C33.6914 7.40826 35.7513 5.59306 38.6679 5.59306C41.5232 5.59306 43.7259 7.38786 43.8891 10.182H42.3187C42.2167 8.24447 40.789 6.83718 38.6883 6.83718C36.4448 6.83718 35.2414 8.20368 35.2414 9.67215C35.2414 11.4058 36.7099 11.936 38.3415 12.2624L40.1975 12.6499C42.6654 13.1598 44.0727 14.1795 44.0727 16.3823Z" fill="#0F3E17"/>
<path d="M57.5863 5.79702V15.4237C57.5863 18.7073 55.4651 20.7469 52.2426 20.7469C48.9998 20.7469 46.8786 18.7073 46.8786 15.4237V5.79702H48.4083V15.5053C48.4083 17.8915 49.9787 19.3804 52.2426 19.3804C54.5065 19.3804 56.0566 17.8915 56.0566 15.5053V5.79702H57.5863Z" fill="#0F3E17"/>
<path d="M70.8151 20.441L62.2694 7.95893V20.441H60.8417V5.79702H62.5345L70.9986 18.1159V5.79702H72.4467V20.441H70.8151Z" fill="#0F3E17"/>
<path d="M77.2895 20.441H75.7599V5.79702H84.1628V7.12272H77.2895V12.8334H83.2042V14.1592H77.2895V20.441Z" fill="#0F3E17"/>
<path d="M94.7978 20.441H86.4356V5.79702H87.9653V19.0745H94.7978V20.441Z" fill="#0F3E17"/>
<path d="M102.404 20.7469C98.1613 20.7469 95.0204 17.3612 95.0204 13.0986C95.0204 8.83594 98.1613 5.49108 102.404 5.49108C106.646 5.49108 109.807 8.83594 109.807 13.0986C109.807 17.3612 106.646 20.7469 102.404 20.7469ZM102.404 19.3804C105.871 19.3804 108.216 16.6066 108.216 13.0986C108.216 9.59057 105.871 6.85758 102.404 6.85758C98.9567 6.85758 96.5908 9.59057 96.5908 13.0986C96.5908 16.6066 98.9567 19.3804 102.404 19.3804Z" fill="#0F3E17"/>
<path d="M122.908 20.441L119.482 7.87735L116.035 20.441H114.444L110.59 5.79702H112.078L115.24 18.2178L118.666 5.79702H120.298L123.683 18.2586L126.865 5.79702H128.374L124.52 20.441H122.908Z" fill="#0F3E17"/>
<path d="M139.343 19.1152V20.441H130.553V5.79702H139.2V7.12272H132.082V12.2216H138.589V13.5473H132.082V19.1152H139.343Z" fill="#0F3E17"/>
<path d="M143.714 20.441H142.185V5.79702H147.406C150.506 5.79702 152.443 7.40826 152.443 10.2228C152.443 12.4255 150.995 14.0776 148.691 14.4651L152.831 20.441H150.995L147.059 14.6486H143.714V20.441ZM143.714 7.08193V13.3637H147.283C149.527 13.3637 150.914 12.2624 150.914 10.2228C150.914 8.18328 149.527 7.08193 147.283 7.08193H143.714Z" fill="#0F3E17"/>
<path d="M165.756 20.7469C161.677 20.7469 158.597 17.4224 158.597 13.0986C158.597 8.79515 161.677 5.49108 165.756 5.49108C169.243 5.49108 172.119 7.83656 172.69 11.3242H171.079C170.61 8.71357 168.448 6.85758 165.756 6.85758C162.513 6.85758 160.167 9.50899 160.167 13.0986C160.167 16.729 162.513 19.3804 165.756 19.3804C168.468 19.3804 170.63 17.504 171.079 14.8934H172.69C172.119 18.381 169.243 20.7469 165.756 20.7469Z" fill="#0F3E17"/>
<path d="M184.811 20.441L183.281 16.3823H176.449L174.899 20.441H173.389L179.08 5.79702H180.752L186.422 20.441H184.811ZM179.875 7.42865L176.918 15.1381H182.792L179.875 7.42865Z" fill="#0F3E17"/>
<path d="M193.445 15.0566H190.162V20.441H188.632V5.79702H193.445C196.464 5.79702 198.524 7.44905 198.524 10.4064C198.524 13.3637 196.464 15.0566 193.445 15.0566ZM193.425 7.10232H190.162V13.7512H193.425C195.607 13.7512 196.994 12.5479 196.994 10.4064C196.994 8.28526 195.607 7.10232 193.425 7.10232Z" fill="#0F3E17"/>
<path d="M202.411 20.441H200.881V5.79702H202.411V20.441Z" fill="#0F3E17"/>
<path d="M210.902 20.441H209.392V7.16351H204.477V5.79702H215.817V7.16351H210.902V20.441Z" fill="#0F3E17"/>
<path d="M226.817 20.441L225.287 16.3823H218.454L216.904 20.441H215.395L221.085 5.79702H222.758L228.428 20.441H226.817ZM221.881 7.42865L218.924 15.1381H224.797L221.881 7.42865Z" fill="#0F3E17"/>
<path d="M239 20.441H230.638V5.79702H232.168V19.0745H239V20.441Z" fill="#0F3E17"/>
</svg>
