<svg width="88" height="34" viewBox="0 0 88 34" fill="none" xmlns="http://www.w3.org/2000/svg">
<g clip-path="url(#clip0_1893_15755)">
<g clip-path="url(#clip1_1893_15755)">
<path d="M0.100586 0.416504H16.1006V16.4165H0.100586V0.416504Z" fill="#0F3E17"/>
<path d="M18.1006 0.416504H34.1006V16.4165H18.1006V0.416504Z" fill="#0F3E17"/>
<path d="M36.1006 0.416504H52.1006V16.4165H36.1006V0.416504Z" fill="#0F3E17"/>
<path d="M0.100586 18.4165H16.1006V34.4165H0.100586V18.4165Z" fill="#0F3E17"/>
<path d="M18.1006 18.4165H34.1006V34.4165H18.1006V18.4165Z" fill="#0F3E17"/>
<path d="M36.1006 18.4165H52.1006V34.4165H36.1006V18.4165Z" fill="#0F3E17"/>
<path d="M54.1006 18.4165H70.1005V34.4165H54.1006V18.4165Z" fill="#0F3E17"/>
<path d="M72.0996 18.4165H88.0996V34.4165H72.0996V18.4165Z" fill="#0F3E17"/>
<path d="M11.2934 10.0949C11.2934 10.5422 11.2048 10.9201 11.0274 11.2286C10.85 11.5294 10.6147 11.7724 10.3217 11.9575C10.0286 12.1426 9.69308 12.2776 9.31513 12.3624C8.9449 12.4395 8.56313 12.4781 8.16976 12.4781H4.90723V4.28711H8.16976C8.48602 4.28711 8.80993 4.32182 9.14161 4.39123C9.47323 4.45294 9.77407 4.56477 10.044 4.72674C10.3139 4.881 10.5338 5.0931 10.7034 5.36305C10.8731 5.633 10.9579 5.97622 10.9579 6.39271C10.9579 6.84773 10.8346 7.22568 10.5878 7.52646C10.341 7.81959 10.017 8.03166 9.61591 8.16281V8.18594C9.84729 8.22449 10.0633 8.29777 10.2638 8.40572C10.472 8.50602 10.6494 8.63711 10.796 8.79909C10.9502 8.96108 11.0698 9.15002 11.1547 9.36598C11.2472 9.58194 11.2934 9.82492 11.2934 10.0949ZM9.04902 6.65879C9.04902 6.38114 8.94107 6.18061 8.72511 6.0572C8.51686 5.92609 8.20449 5.86053 7.78799 5.86053H6.81619V7.54959H7.88057C8.25075 7.54959 8.53617 7.47637 8.73665 7.32981C8.9449 7.17553 9.04902 6.95186 9.04902 6.65879ZM9.31513 9.90974C9.31513 9.57041 9.18788 9.33514 8.93336 9.20399C8.67885 9.07291 8.33945 9.00734 7.91524 9.00734H6.81619V10.8815H7.92684C8.08111 10.8815 8.23921 10.87 8.40114 10.8469C8.57084 10.816 8.72123 10.7659 8.85237 10.6965C8.99122 10.627 9.10306 10.5306 9.18788 10.4072C9.27269 10.2761 9.31513 10.1103 9.31513 9.90974Z" fill="white"/>
<path d="M30.7177 8.34849C30.7177 8.99637 30.6059 9.59028 30.3822 10.1302C30.1586 10.6623 29.8462 11.1212 29.4451 11.5069C29.0517 11.8848 28.5813 12.1779 28.0337 12.3862C27.4861 12.5944 26.8922 12.6985 26.252 12.6985C25.6119 12.6985 25.018 12.5944 24.4704 12.3862C23.9304 12.1779 23.46 11.8848 23.0589 11.5069C22.6656 11.1212 22.357 10.6623 22.1334 10.1302C21.9097 9.59028 21.7979 8.99637 21.7979 8.34849C21.7979 7.6929 21.9097 7.10287 22.1334 6.57836C22.357 6.04621 22.6656 5.59501 23.0589 5.22479C23.46 4.85458 23.9304 4.56921 24.4704 4.36867C25.018 4.16814 25.6119 4.06787 26.252 4.06787C26.8922 4.06787 27.4861 4.16814 28.0337 4.36867C28.5813 4.56921 29.0517 4.85458 29.4451 5.22479C29.8462 5.59501 30.1586 6.04621 30.3822 6.57836C30.6059 7.10287 30.7177 7.6929 30.7177 8.34849ZM28.6006 8.34849C28.6006 7.99368 28.5427 7.66205 28.4271 7.3535C28.3113 7.04501 28.1494 6.78279 27.9411 6.56683C27.7406 6.34315 27.4938 6.16962 27.2007 6.04621C26.9153 5.91509 26.5991 5.84953 26.252 5.84953C25.9049 5.84953 25.5887 5.91509 25.3034 6.04621C25.018 6.16962 24.7712 6.34315 24.5629 6.56683C24.3547 6.78279 24.1927 7.04501 24.077 7.3535C23.9691 7.66205 23.915 7.99368 23.915 8.34849C23.915 8.71873 23.9729 9.06194 24.0886 9.37814C24.2043 9.68663 24.3624 9.95274 24.5629 10.1764C24.7712 10.4001 25.018 10.5775 25.3034 10.7086C25.5887 10.832 25.9049 10.8937 26.252 10.8937C26.5991 10.8937 26.9153 10.832 27.2007 10.7086C27.4861 10.5775 27.7329 10.4001 27.9411 10.1764C28.1494 9.95274 28.3113 9.68663 28.4271 9.37814C28.5427 9.06194 28.6006 8.71873 28.6006 8.34849Z" fill="white"/>
<path d="M45.6751 12.4781L43.8818 9.58583L42.158 12.4781H39.7979L42.667 8.15121L40.0292 4.28711H42.4125L43.9397 6.83231L45.4437 4.28711H47.746L45.1544 8.15121L48.1161 12.4781H45.6751Z" fill="white"/>
<path d="M11.8268 29.9813C11.4257 30.1895 10.9553 30.3591 10.4153 30.4903C9.88318 30.6214 9.30087 30.6869 8.66841 30.6869C8.01282 30.6869 7.40737 30.5828 6.85202 30.3746C6.30444 30.1664 5.83008 29.8732 5.42901 29.4954C5.03566 29.1174 4.72715 28.6662 4.50348 28.1417C4.2798 27.6096 4.16797 27.0195 4.16797 26.3717C4.16797 25.7161 4.2798 25.1222 4.50348 24.5899C4.73486 24.0578 5.05108 23.6066 5.45215 23.2364C5.85322 22.8584 6.32368 22.5692 6.86362 22.3687C7.40349 22.1682 7.9858 22.0679 8.61055 22.0679C9.25843 22.0679 9.86005 22.1682 10.4153 22.3687C10.9707 22.5615 11.4219 22.8238 11.769 23.1554L10.5195 24.5784C10.3266 24.3547 10.0721 24.1735 9.75592 24.0347C9.43966 23.8881 9.08102 23.8149 8.67994 23.8149C8.3329 23.8149 8.01282 23.8804 7.71975 24.0115C7.42662 24.1349 7.17211 24.3123 6.95614 24.5437C6.74018 24.7674 6.57049 25.0373 6.44712 25.3535C6.33139 25.662 6.27359 26.0014 6.27359 26.3717C6.27359 26.7495 6.32757 27.0967 6.43552 27.4129C6.54353 27.7291 6.70163 28.0029 6.90988 28.2343C7.12584 28.4579 7.38807 28.6353 7.69656 28.7665C8.01282 28.8899 8.37146 28.9516 8.77253 28.9516C9.00392 28.9516 9.2237 28.9362 9.43195 28.9053C9.6402 28.8667 9.83303 28.8089 10.0104 28.7318V27.2393H8.44856V25.6428H11.8268V29.9813Z" fill="white"/>
<path d="M27.292 30.4776L25.5219 27.2267H24.8509V30.4776H22.9072V22.2866H26.0309C26.4243 22.2866 26.8061 22.3291 27.1763 22.4139C27.5542 22.491 27.8897 22.626 28.1828 22.8188C28.4836 23.0117 28.7227 23.2662 28.9001 23.5824C29.0775 23.8986 29.1662 24.292 29.1662 24.7625C29.1662 25.3178 29.0158 25.7844 28.715 26.1623C28.4142 26.5403 27.9977 26.8102 27.4655 26.9722L29.6058 30.4776H27.292ZM27.211 24.7972C27.211 24.6043 27.1686 24.4501 27.0838 24.3344C27.0066 24.211 26.9025 24.1184 26.7714 24.0567C26.648 23.9873 26.5053 23.941 26.3433 23.9179C26.1891 23.8948 26.0386 23.8832 25.8921 23.8832H24.8393V25.7921H25.7764C25.9384 25.7921 26.1042 25.7805 26.2739 25.7574C26.4436 25.7266 26.5978 25.6764 26.7367 25.607C26.8755 25.5376 26.9873 25.4373 27.0722 25.3062C27.1647 25.1751 27.211 25.0054 27.211 24.7972Z" fill="white"/>
<path d="M48.7177 26.3485C48.7177 26.9964 48.6059 27.5903 48.3822 28.1301C48.1586 28.6624 47.8462 29.1212 47.4451 29.5069C47.0517 29.8848 46.5813 30.1779 46.0337 30.3862C45.4861 30.5944 44.8922 30.6985 44.252 30.6985C43.6119 30.6985 43.018 30.5944 42.4704 30.3862C41.9304 30.1779 41.46 29.8848 41.0589 29.5069C40.6656 29.1212 40.357 28.6624 40.1334 28.1301C39.9097 27.5903 39.7979 26.9964 39.7979 26.3485C39.7979 25.6929 39.9097 25.1029 40.1334 24.5784C40.357 24.0462 40.6656 23.595 41.0589 23.2248C41.46 22.8546 41.9304 22.5692 42.4704 22.3687C43.018 22.1682 43.6119 22.0679 44.252 22.0679C44.8922 22.0679 45.4861 22.1682 46.0337 22.3687C46.5813 22.5692 47.0517 22.8546 47.4451 23.2248C47.8462 23.595 48.1586 24.0462 48.3822 24.5784C48.6059 25.1029 48.7177 25.6929 48.7177 26.3485ZM46.6006 26.3485C46.6006 25.9937 46.5427 25.662 46.4271 25.3535C46.3113 25.0451 46.1494 24.7828 45.9411 24.5668C45.7406 24.3431 45.4938 24.1696 45.2007 24.0462C44.9153 23.9151 44.5991 23.8495 44.252 23.8495C43.9049 23.8495 43.5887 23.9151 43.3034 24.0462C43.018 24.1696 42.7712 24.3431 42.5629 24.5668C42.3547 24.7828 42.1927 25.0451 42.077 25.3535C41.9691 25.662 41.915 25.9937 41.915 26.3485C41.915 26.7187 41.9729 27.0619 42.0886 27.3782C42.2043 27.6867 42.3624 27.9528 42.5629 28.1765C42.7712 28.4001 43.018 28.5775 43.3034 28.7086C43.5887 28.8321 43.9049 28.8937 44.252 28.8937C44.5991 28.8937 44.9153 28.8321 45.2007 28.7086C45.486 28.5775 45.7329 28.4001 45.9411 28.1765C46.1494 27.9528 46.3113 27.6867 46.4271 27.3782C46.5427 27.0619 46.6006 26.7187 46.6006 26.3485Z" fill="white"/>
<path d="M65.5604 27.3887C65.5604 27.8823 65.476 28.3335 65.306 28.7423C65.1439 29.1433 64.9089 29.4904 64.6005 29.7835C64.292 30.0689 63.918 30.2925 63.4785 30.4545C63.0462 30.6165 62.5641 30.6975 62.0323 30.6975C61.4919 30.6975 61.0062 30.6165 60.5743 30.4545C60.1424 30.2925 59.7761 30.0689 59.4752 29.7835C59.1744 29.4904 58.9431 29.1433 58.7811 28.7423C58.6191 28.3335 58.5381 27.8823 58.5381 27.3887V22.2866H60.5049V27.2267C60.5049 27.4504 60.5319 27.6625 60.5859 27.863C60.6475 28.0635 60.7362 28.2448 60.852 28.4067C60.9752 28.561 61.1337 28.6844 61.3261 28.777C61.5271 28.8696 61.7657 28.9158 62.0438 28.9158C62.3213 28.9158 62.5562 28.8696 62.7493 28.777C62.9496 28.6844 63.1118 28.561 63.235 28.4067C63.3589 28.2448 63.4475 28.0635 63.5015 27.863C63.5556 27.6625 63.5823 27.4504 63.5823 27.2267V22.2866H65.5604V27.3887Z" fill="white"/>
<path d="M83.1201 24.8088C83.1201 25.2869 83.0315 25.6918 82.8536 26.0235C82.6763 26.3474 82.4371 26.6097 82.1366 26.8102C81.836 27.0107 81.4887 27.1573 81.0953 27.2498C80.7019 27.3424 80.2933 27.3887 79.8689 27.3887H78.8853V30.4776H76.9072V22.2866H79.915C80.3625 22.2866 80.779 22.3329 81.1645 22.4255C81.5579 22.5103 81.8973 22.653 82.1827 22.8536C82.4759 23.0463 82.7036 23.3047 82.8651 23.6287C83.0351 23.9449 83.1201 24.3383 83.1201 24.8088ZM81.1414 24.8203C81.1414 24.6275 81.1032 24.4694 81.0261 24.346C80.949 24.2226 80.8445 24.1261 80.7134 24.0567C80.5823 23.9873 80.4323 23.941 80.2623 23.9179C80.1002 23.8948 79.9308 23.8832 79.7535 23.8832H78.8853V25.8153H79.7183C79.9035 25.8153 80.0814 25.7999 80.2508 25.769C80.4202 25.7381 80.5707 25.6841 80.7019 25.607C80.8409 25.5299 80.949 25.4296 81.0261 25.3062C81.1032 25.1751 81.1414 25.0131 81.1414 24.8203Z" fill="white"/>
</g>
</g>
<defs>
<clipPath id="clip0_1893_15755">
<rect width="88" height="34" fill="white"/>
</clipPath>
<clipPath id="clip1_1893_15755">
<rect width="88.0357" height="34" fill="white" transform="translate(0.100586 0.416504)"/>
</clipPath>
</defs>
</svg>
