<svg width="57" height="42" viewBox="0 0 57 42" fill="none" xmlns="http://www.w3.org/2000/svg">
<path d="M35.2804 0L36.7593 0.00417344C35.1836 2.65661 33.3105 5.49313 31.6503 8.12831L18.6321 28.8031L17.1337 28.804L35.2804 0Z" fill="#0F3E17"/>
<path d="M41.1998 0.000858556L42.6782 0.00209565C40.7331 3.20943 38.5891 6.5068 36.5852 9.69106L24.5587 28.803L23.0726 28.8031C25.0595 25.5027 27.3149 22.0564 29.3738 18.7836L41.1998 0.000858556Z" fill="#0F3E17"/>
<path d="M32.3297 0.00187809L33.8143 0.00357733L15.6753 28.7997C15.2096 28.8154 14.6595 28.8016 14.1868 28.8022C14.7896 27.773 15.5642 26.6063 16.2076 25.5852L32.3297 0.00187809Z" fill="#0F3E17"/>
<path d="M38.2651 0.00150247L39.7131 0.00325516C39.0373 1.14767 38.2424 2.36039 37.531 3.4908L21.6006 28.8032L20.1099 28.8048L30.638 12.1018C33.1431 8.10787 35.6987 3.93624 38.2651 0.00150247Z" fill="#0F3E17"/>
<path d="M38.7431 34.3287C38.993 34.2859 39.5395 34.3356 39.7909 34.4151C41.207 34.8651 41.2117 36.6776 41.1504 37.8999C41.1256 38.3867 40.9716 38.979 40.7053 39.3885C39.9692 40.5186 38.193 40.4553 37.0659 40.0952V40.8745L37.0721 41.9974L36.0871 42C36.1098 39.5116 36.1124 36.9177 36.082 34.4314C36.3524 34.4403 36.6502 34.4332 36.9232 34.4324L36.9943 34.938C37.6722 34.5171 37.9406 34.4034 38.7431 34.3287ZM37.069 35.6493L37.0684 39.2108C37.8195 39.4287 38.1471 39.44 38.9435 39.3906C40.065 39.1356 40.1644 38.4346 40.2118 37.4152C40.2726 36.126 39.8857 34.9677 38.3388 35.2C37.8334 35.2724 37.512 35.3808 37.069 35.6493Z" fill="#0F3E17"/>
<path d="M13.3095 0.00378325L14.7857 0.00187809C17.6018 4.34961 20.3519 8.85542 23.1313 13.2409L22.6579 13.9822L22.3724 14.4245L13.3095 0.00378325Z" fill="#0F3E17"/>
<path d="M34.45 14.4155C34.5922 14.57 35.1382 15.4612 35.2819 15.6895L43.5488 28.8079L42.8116 28.8039L42.0693 28.8036C41.2219 27.6098 40.1056 25.7058 39.3015 24.4307L33.7267 15.5885C33.9663 15.2292 34.2213 14.7887 34.45 14.4155Z" fill="#0F3E17"/>
<path d="M31.7868 34.3352C34.4696 34.1548 34.705 35.1901 34.6102 37.6141C34.5783 38.4341 34.604 39.4014 34.6113 40.2317L33.7082 40.2271L33.6624 39.6847C32.7058 40.3074 31.2181 40.6752 30.2697 39.8511C29.9076 39.3298 29.8566 38.8065 29.9153 38.1827C30.0771 36.4783 32.4127 36.7461 33.6304 36.9542C33.6371 36.6833 33.6407 36.3485 33.597 36.0822C33.3883 34.8099 31.4066 35.1333 30.4773 35.3704C30.4701 35.0959 30.4773 34.7968 30.4789 34.5202C30.9141 34.4238 31.3432 34.3718 31.7868 34.3352ZM32.7156 39.338C33.0581 39.2438 33.3291 39.1454 33.633 38.9538L33.6304 37.7212C32.9577 37.6166 32.3807 37.5677 31.6956 37.6151C31.1341 37.7222 30.6164 38.0272 30.7879 38.6952C30.8559 38.9605 31.0331 39.184 31.2758 39.3107C31.726 39.5497 32.2463 39.4472 32.7156 39.338Z" fill="#0F3E17"/>
<path d="M50.9368 34.3307C51.0986 34.318 51.2609 34.3111 51.4236 34.3101C53.7247 34.3172 53.5748 35.738 53.5738 37.5311L53.5717 40.2312L52.6847 40.2276L52.6414 39.6939C51.6601 40.2909 50.1518 40.705 49.2153 39.8155C48.8778 39.2788 48.8299 38.6983 48.9072 38.0791C49.106 36.4829 51.4973 36.7616 52.6033 36.9552C52.6157 36.0997 52.6038 35.2442 51.4484 35.1721C50.8281 35.1334 50.0539 35.2219 49.4507 35.3709L49.4491 34.5275C49.9519 34.4029 50.4232 34.3613 50.9368 34.3307ZM51.6364 39.3602C51.9753 39.2582 52.3014 39.1469 52.6043 38.9584L52.6002 37.716C52.0016 37.6315 51.2861 37.5527 50.6808 37.6197C50.1147 37.7103 49.6129 38.0302 49.7634 38.6895C49.8195 38.9332 49.9715 39.1443 50.1852 39.2752C50.6241 39.5461 51.1619 39.4549 51.6364 39.3602Z" fill="#0F3E17"/>
<path d="M32.9885 16.7765C33.175 16.9395 34.061 18.4206 34.245 18.7184C36.3271 22.0949 38.5113 25.4195 40.5801 28.803L39.9665 28.8038L39.1006 28.8032L32.2663 17.933L32.9885 16.7765Z" fill="#0F3E17"/>
<path d="M16.2618 0.00220005L17.731 0.00364307C18.538 1.21904 19.3696 2.6006 20.1529 3.84366L24.6046 10.9168L24.1196 11.6673L23.8496 12.0674C23.0148 10.8476 22.0768 9.25777 21.2786 7.98762L16.2618 0.00220005Z" fill="#0F3E17"/>
<path d="M5.05573 32.8643L6.13653 32.8639C5.42868 33.9833 4.49624 35.3177 3.73405 36.4123C4.02639 36.8146 6.2852 40.0118 6.30709 40.207L6.19335 40.2291L5.15835 40.2286L3.10909 37.2087C2.4438 38.1564 1.75254 39.2546 1.10749 40.2296L0 40.2291L2.54765 36.4479C1.75094 35.249 0.901741 34.0751 0.115595 32.8658L1.31436 32.8636C1.93175 33.8083 2.54316 34.7568 3.14855 35.7091L5.05573 32.8643Z" fill="#0F3E17"/>
<path d="M14.6846 32.865L15.7781 32.8629C16.0757 33.5871 16.3432 34.4254 16.6241 35.1659C17.1655 36.5937 17.6382 37.9494 18.044 39.4236C18.6773 37.1876 19.5007 35.0517 20.2886 32.8643L21.3732 32.8635L21.1185 33.5461C20.3302 35.7388 19.4496 38.0555 18.6086 40.2302L17.4423 40.2286L14.6846 32.865Z" fill="#0F3E17"/>
<path d="M31.488 19.1412C31.6621 19.286 32.5198 20.711 32.7001 21.0019C34.3145 23.6102 36.0108 26.1826 37.6042 28.8025L36.9906 28.8037L36.1324 28.804C34.3305 26.0467 32.5301 23.096 30.7714 20.2988L31.488 19.1412Z" fill="#0F3E17"/>
<path d="M26.8107 32.7815C27.2953 32.6944 28.5522 32.7907 29.0663 32.8509L29.0658 33.7572C28.2565 33.6012 27.2319 33.6221 26.4256 33.7745C25.2065 34.0102 25.0784 35.3121 25.0111 36.3134C24.8139 39.2479 26.3029 39.8943 29.0138 39.0496C29.1111 39.0182 29.1044 39.0202 29.2059 39.0316C29.2883 39.2278 29.2502 39.6131 29.2482 39.8516C28.7588 40.0612 28.2431 40.2029 27.7151 40.2734C26.8901 40.378 25.7015 40.3265 25.0254 39.7702C23.624 38.6179 23.6918 35.1244 24.7084 33.7518C25.1851 33.1082 26.061 32.867 26.8107 32.7815Z" fill="#0F3E17"/>
<path d="M19.2219 0.00528394L20.7043 0.00332691C21.3156 0.895198 21.9957 2.0494 22.5831 2.98248L26.0815 8.55308L25.6809 9.19184L25.352 9.70909C24.6736 8.72728 23.9 7.42483 23.2535 6.40023L19.2219 0.00528394Z" fill="#0F3E17"/>
<path d="M7.21212 32.865L8.23924 32.8621C8.16671 34.8621 8.22976 37.2581 8.23399 39.286C9.40123 39.2963 10.5686 39.2922 11.7358 39.2736L11.7367 40.2152C11.5315 40.2461 10.5464 40.2312 10.2947 40.2307L7.21021 40.2291L7.21212 32.865Z" fill="#0F3E17"/>
<path d="M45.4141 33.0317L46.2275 33.0217C46.2105 33.4729 46.2198 33.9821 46.2182 34.438C46.9034 34.4405 47.5885 34.4395 48.2736 34.4348L48.2757 35.2425L46.2151 35.2447C46.2126 36.2887 46.1915 37.3364 46.2306 38.3789C46.2801 39.6867 47.4365 39.4374 48.3535 39.3344L48.353 40.14C44.5399 41.2974 45.224 37.6913 45.258 35.248L44.3911 35.2446L44.3895 34.432C44.6749 34.4398 44.9773 34.4347 45.2642 34.4349L45.4141 33.0317Z" fill="#0F3E17"/>
<path d="M22.1817 0.00357956L23.6552 0.00321959C24.0501 0.549262 24.6042 1.49594 24.9759 2.08638L27.5637 6.19918L27.0994 6.9559L26.8334 7.38496C25.2781 5.03555 23.6818 2.40681 22.1817 0.00357956Z" fill="#0F3E17"/>
<path d="M30.0044 21.5054C30.298 21.7304 34.1585 28.0072 34.6494 28.804L33.172 28.8039C31.8651 26.8071 30.5772 24.6772 29.2899 22.6533L30.0044 21.5054Z" fill="#0F3E17"/>
<path d="M55.1898 32.4275L56.0455 32.4223C55.9883 34.9802 56.0599 37.63 56.0372 40.2008L55.9481 40.2302L55.0626 40.2297L55.0672 34.5417C55.0672 34.2111 55.0409 32.6575 55.0904 32.4631L55.1898 32.4275Z" fill="#0F3E17"/>
<path d="M12.7443 32.8643L13.7594 32.8622L13.7591 37.8247C13.7597 38.5087 13.7963 39.593 13.7419 40.2301L12.7436 40.2307C12.8151 37.953 12.7717 35.161 12.7443 32.8643Z" fill="#0F3E17"/>
<path d="M42.4233 34.4333C42.7452 34.4447 43.0883 34.4326 43.4118 34.4269C43.3376 36.1017 43.3721 38.467 43.4108 40.1642L43.3948 40.1889C43.267 40.2631 42.6175 40.2312 42.4248 40.2296C42.4753 38.433 42.4459 36.2326 42.4233 34.4333Z" fill="#0F3E17"/>
<path d="M42.5196 32.4268L43.437 32.4219C43.4416 32.6925 43.4643 33.144 43.4174 33.3958L43.3304 33.4291L42.3903 33.4333C42.3897 33.1614 42.3609 32.7087 42.4181 32.4633L42.5196 32.4268Z" fill="#0F3E17"/>
</svg>
