<svg width="148" height="28" viewBox="0 0 148 28" fill="none" xmlns="http://www.w3.org/2000/svg">
<g clip-path="url(#clip0_2747_2925)">
<path fill-rule="evenodd" clip-rule="evenodd" d="M54.1968 1.07033V0.694824C55.2026 0.741571 56.3105 0.764561 57.5197 0.764561C58.7897 0.764561 60.182 0.741571 61.6974 0.694824L61.8399 3.08197H61.3935C61.212 2.40683 61.0764 1.97614 60.986 1.78992C60.9253 1.66194 60.8294 1.56998 60.6978 1.51251C60.5661 1.4558 60.2716 1.42668 59.8142 1.42668H56.9923C56.9665 1.98687 56.9447 3.06894 56.9276 4.67289H58.7048C59.046 4.67289 59.2681 4.6545 59.3701 4.61618C59.4714 4.57787 59.5556 4.50353 59.6226 4.39318C59.6896 4.28282 59.7644 4.03223 59.8462 3.64216C59.8594 3.57013 59.8828 3.46361 59.9179 3.32413H60.3448C60.3059 4.21079 60.2864 4.78784 60.2864 5.05529C60.2864 5.14036 60.3059 5.68139 60.3448 6.6784H59.9179C59.896 6.55962 59.8812 6.47072 59.8727 6.41172C59.7815 5.86378 59.6802 5.53885 59.5673 5.4377C59.4551 5.33577 59.1652 5.28443 58.6985 5.28443H56.9276C56.9237 5.70898 56.9214 5.99329 56.9214 6.13737C56.9214 7.83098 56.9346 8.74139 56.9603 8.8686C56.9775 8.9529 57.025 9.01727 57.1029 9.05942C57.2018 9.11919 57.6911 9.21652 58.5715 9.35216V9.72766C57.5984 9.68092 56.898 9.65793 56.4718 9.65793L54.2092 9.72766V9.35216C54.3814 9.31844 54.51 9.29468 54.5965 9.28242C55.1161 9.20579 55.4239 9.12072 55.5205 9.02723C55.6179 8.9345 55.6662 8.73909 55.6662 8.44175L55.6981 6.62782C55.7028 6.34734 55.7044 5.8132 55.7044 5.02311C55.7044 3.10113 55.6958 2.01446 55.6787 1.76387C55.6662 1.59834 55.6226 1.48645 55.5493 1.42668C55.4543 1.34621 55.12 1.25042 54.5466 1.14007C54.4687 1.12781 54.3518 1.10405 54.1968 1.07033Z" fill="#0F3E17"/>
<path fill-rule="evenodd" clip-rule="evenodd" d="M64.1436 6.29118C64.7239 6.30776 65.1396 6.31605 65.3901 6.31605C65.4648 6.31605 66.1062 6.30776 67.3127 6.29118L65.7267 2.53591L64.1436 6.29118ZM65.7953 0.694824H66.1899C66.7544 2.14327 67.4478 3.7854 68.271 5.62121L69.7318 8.8075C69.7982 8.92054 69.8714 9.00419 69.9514 9.05845C70.0057 9.09613 70.3121 9.19637 70.8727 9.35839V9.72766C70.1121 9.68169 69.5522 9.65909 69.1923 9.65909C68.8248 9.65909 68.1986 9.68169 67.312 9.72766V9.35839C67.8175 9.25439 68.1125 9.17074 68.1963 9.10819C68.2801 9.04564 68.3216 8.97254 68.3216 8.88889C68.3216 8.80147 68.2778 8.65301 68.1895 8.44426L67.5527 6.91743C66.6676 6.90914 66.0224 6.90462 65.6188 6.90462L63.9037 6.91743L63.2442 8.50078C63.1355 8.7555 63.082 8.91376 63.082 8.97706C63.082 9.03132 63.1076 9.07579 63.1597 9.11121C63.2117 9.14663 63.4555 9.21068 63.8901 9.30187C63.9361 9.31468 64.001 9.33352 64.0848 9.35839V9.72766C63.3694 9.68169 62.8661 9.65909 62.5741 9.65909C62.2021 9.65909 61.7253 9.68169 61.145 9.72766V9.35839C61.5246 9.2755 61.7864 9.18129 61.9282 9.07729C62.0324 8.99816 62.1418 8.86402 62.2542 8.67637C62.4926 8.26264 63.0978 6.93401 64.0719 4.68899L65.7953 0.694824Z" fill="#0F3E17"/>
<path fill-rule="evenodd" clip-rule="evenodd" d="M71.5679 1.07033V0.694824C72.2469 0.741571 72.763 0.764561 73.1169 0.764561C73.5192 0.764561 73.9531 0.741571 74.4163 0.694824C74.5829 1.14007 74.7166 1.48032 74.8179 1.71406C74.9515 2.02825 75.4815 3.21915 76.4065 5.2875C76.8 6.16649 77.1979 7.02402 77.5995 7.8601L80.202 2.14091C80.3606 1.78839 80.5492 1.30636 80.7695 0.694824C81.3142 0.741571 81.7312 0.764561 82.0197 0.764561C82.2884 0.764561 82.7414 0.741571 83.38 0.694824V1.07033C83.2582 1.10405 83.1672 1.12781 83.1055 1.14007C82.5409 1.25885 82.2253 1.34621 82.1607 1.40139C82.0542 1.48645 82.0021 1.70026 82.0021 2.04435V2.12711L81.9771 4.14488C81.9771 6.683 81.9881 8.22334 82.008 8.76668C82.0124 8.88163 82.0439 8.96592 82.1027 9.0211C82.1614 9.07628 82.5079 9.16747 83.1422 9.29468C83.195 9.30311 83.2743 9.32227 83.38 9.35216V9.72766C82.6481 9.68092 82.0043 9.65793 81.4471 9.65793C80.8781 9.65793 80.2049 9.68092 79.429 9.72766V9.35216C79.5868 9.31001 79.7065 9.28012 79.7879 9.26326C80.2842 9.16517 80.5676 9.09697 80.6388 9.05635C80.71 9.01574 80.7577 8.95979 80.7827 8.88776C80.8187 8.76438 80.837 8.42106 80.837 7.85626V2.29877C80.4677 3.06281 79.633 4.90279 78.3329 7.81795C77.9754 8.6203 77.7111 9.23338 77.5408 9.65793H77.1935C76.2839 7.54896 75.1688 5.09591 73.8488 2.29877L73.9274 8.23177C73.9274 8.70307 73.9641 8.97205 74.0375 9.04026C74.1109 9.1077 74.4178 9.19046 74.9581 9.28855C75.0198 9.30158 75.113 9.32227 75.2393 9.35216V9.72766C74.5352 9.68092 73.9663 9.65793 73.5317 9.65793C73.0963 9.65793 72.5215 9.68092 71.8057 9.72766V9.35216C71.9232 9.31844 72.0113 9.29698 72.0678 9.28855C72.6045 9.1782 72.9055 9.08317 72.9701 9.00194C73.0677 8.88316 73.1191 8.59272 73.1228 8.12985L73.1536 6.69756C73.1742 5.39018 73.1837 4.12419 73.1837 2.89728L73.1778 2.12022C73.1778 1.81138 73.1595 1.61673 73.1228 1.53856C73.0861 1.45963 73.0273 1.40369 72.9466 1.3692C72.7917 1.3056 72.4459 1.23203 71.9092 1.1462C71.8322 1.13394 71.7184 1.10865 71.5679 1.07033Z" fill="#0F3E17"/>
<path fill-rule="evenodd" clip-rule="evenodd" d="M88.2437 0.694824V1.07033C88.0937 1.10405 87.9823 1.12781 87.9096 1.14083C87.3405 1.23816 87.0103 1.33012 86.9206 1.41748C86.8301 1.50408 86.7852 1.69873 86.7852 1.9999V2.22214L86.7535 4.78171L86.7728 8.49922C86.7728 8.79656 86.8169 8.98508 86.9043 9.06555C86.9917 9.14678 87.2925 9.21652 87.8068 9.27552C87.9058 9.28855 88.0488 9.31384 88.2375 9.35216V9.72766C87.5477 9.68092 86.8842 9.65793 86.2462 9.65793C85.5866 9.65793 84.8627 9.68092 84.0747 9.72766V9.35216C84.1984 9.31844 84.2928 9.29698 84.357 9.28855C84.9656 9.19123 85.3136 9.1008 85.401 9.01803C85.4891 8.93527 85.5332 8.72683 85.5332 8.39117L85.5201 8.07237L85.5394 5.73657C85.5394 3.3341 85.5332 2.00603 85.5201 1.75161C85.5115 1.61137 85.4659 1.50331 85.3824 1.42668C85.2997 1.35004 84.9764 1.25962 84.4134 1.1531C84.3369 1.13624 84.224 1.10865 84.0747 1.07033V0.694824C85.0058 0.741571 85.7327 0.764561 86.2555 0.764561C86.8393 0.764561 87.5021 0.741571 88.2437 0.694824Z" fill="#0F3E17"/>
<path fill-rule="evenodd" clip-rule="evenodd" d="M88.9385 1.07033V0.694824C89.9334 0.741571 90.6071 0.764561 90.9605 0.764561C91.1797 0.764561 91.8799 0.741571 93.0618 0.694824V1.07033C92.3308 1.20214 91.9019 1.28874 91.7765 1.33165C91.6871 1.36077 91.6218 1.40752 91.5815 1.47113C91.5207 1.56002 91.4862 1.74471 91.4781 2.02519C91.4693 2.3049 91.4657 3.87513 91.4657 6.73588C91.4657 7.2999 91.4715 8.05321 91.484 8.99581H94.1696C94.5713 8.99581 94.8338 8.96975 94.9555 8.91918C95.0772 8.8686 95.2026 8.75595 95.3331 8.58199C95.4628 8.40803 95.707 7.97045 96.064 7.27078H96.5816L96.0941 8.69004C96.0091 8.9529 95.9057 9.29928 95.784 9.72766C94.1043 9.68092 92.6424 9.65793 91.3968 9.65793C90.5162 9.65793 89.6988 9.68092 88.9443 9.72766V9.35216C89.5631 9.23338 89.9268 9.15138 90.036 9.10693C90.1445 9.06248 90.2186 9.00194 90.2574 8.92607C90.2956 8.84944 90.3146 8.62643 90.3146 8.25706L90.3454 4.35486L90.3271 1.8405C90.3271 1.62363 90.297 1.48799 90.2354 1.43358C90.1423 1.34851 89.8417 1.25885 89.3344 1.16536C89.2449 1.1485 89.113 1.11708 88.9385 1.07033Z" fill="#0F3E17"/>
<path fill-rule="evenodd" clip-rule="evenodd" d="M102.14 0.694824V1.07033C101.99 1.10405 101.879 1.12781 101.806 1.14083C101.237 1.23816 100.907 1.33012 100.817 1.41748C100.727 1.50408 100.682 1.69873 100.682 1.9999V2.22214L100.65 4.78171L100.669 8.49922C100.669 8.79656 100.713 8.98508 100.801 9.06555C100.888 9.14678 101.189 9.21652 101.703 9.27552C101.802 9.28855 101.945 9.31384 102.134 9.35216V9.72766C101.444 9.68092 100.781 9.65793 100.143 9.65793C99.483 9.65793 98.7592 9.68092 97.9712 9.72766V9.35216C98.0949 9.31844 98.1893 9.29698 98.2535 9.28855C98.8621 9.19123 99.2101 9.1008 99.2974 9.01803C99.3856 8.93527 99.4297 8.72683 99.4297 8.39117L99.4165 8.07237L99.4359 5.73657C99.4359 3.3341 99.4297 2.00603 99.4165 1.75161C99.408 1.61137 99.3624 1.50331 99.2789 1.42668C99.1961 1.35004 98.8729 1.25962 98.3099 1.1531C98.2333 1.13624 98.1204 1.10865 97.9712 1.07033V0.694824C98.9023 0.741571 99.6292 0.764561 100.152 0.764561C100.736 0.764561 101.399 0.741571 102.14 0.694824Z" fill="#0F3E17"/>
<path fill-rule="evenodd" clip-rule="evenodd" d="M104.678 4.67979H106.154C106.723 4.67979 107.058 4.66446 107.16 4.63228C107.262 4.60009 107.344 4.53572 107.407 4.43762C107.47 4.3403 107.549 4.05829 107.642 3.59159C107.654 3.54484 107.672 3.4728 107.697 3.37471H108.1C108.055 4.07515 108.032 4.61388 108.032 4.99169C108.032 5.38252 108.055 5.91743 108.1 6.5964H107.697C107.579 5.98103 107.506 5.63695 107.477 5.56491C107.437 5.46299 107.365 5.38942 107.264 5.34497C107.162 5.30052 106.859 5.2783 106.355 5.2783H104.684L104.714 9.0211H107.27L107.495 9.01497C107.846 9.01497 108.065 9.00041 108.155 8.97052C108.309 8.91535 108.445 8.82338 108.563 8.69311C108.681 8.56436 108.898 8.19805 109.216 7.59571C109.248 7.53593 109.297 7.44934 109.363 7.33439H109.783C109.734 7.4708 109.482 8.26855 109.026 9.72766C107.547 9.68092 106.195 9.65793 104.971 9.65793C104.117 9.65793 103.173 9.68092 102.14 9.72766V9.35216L103.128 9.12915C103.287 9.08317 103.385 9.03643 103.421 8.98968C103.482 8.90921 103.513 8.74139 103.513 8.48696V8.37201L103.543 6.87612C103.547 6.58721 103.549 6.02088 103.549 5.17638C103.549 3.95023 103.546 3.05132 103.537 2.48039C103.529 1.90947 103.509 1.58608 103.476 1.50944C103.452 1.45886 103.414 1.41748 103.363 1.3853C103.313 1.35388 103.124 1.29947 102.799 1.2236L102.14 1.07033V0.694824C102.905 0.741571 103.817 0.764561 104.879 0.764561C105.461 0.764561 106.843 0.741571 109.026 0.694824C109.035 1.42898 109.084 2.1547 109.173 2.87199H108.746C108.583 2.29494 108.451 1.911 108.35 1.72019C108.28 1.58838 108.195 1.50101 108.093 1.45886C107.959 1.40369 107.663 1.3761 107.203 1.3761H104.739L104.696 3.42606L104.678 4.67979Z" fill="#0F3E17"/>
<path fill-rule="evenodd" clip-rule="evenodd" d="M116.305 3.21073H115.84C115.735 2.68799 115.615 2.30641 115.48 2.06526C115.347 1.82411 115.143 1.63516 114.867 1.49841C114.593 1.36166 114.285 1.29329 113.944 1.29329C113.459 1.29329 113.073 1.42783 112.787 1.69692C112.5 1.96527 112.357 2.29171 112.357 2.67476C112.357 3.01295 112.475 3.30851 112.711 3.56142C112.943 3.81434 113.509 4.13342 114.411 4.51867C115.312 4.90466 115.926 5.30315 116.25 5.71487C116.571 6.131 116.732 6.59786 116.732 7.11545C116.732 7.5801 116.611 8.01315 116.368 8.41237C116.126 8.81232 115.762 9.13141 115.276 9.36962C114.79 9.60782 114.267 9.72766 113.705 9.72766C113.322 9.72766 112.94 9.6909 112.555 9.61738C112.171 9.54386 111.71 9.41814 111.173 9.23875C111.234 8.66454 111.265 7.90286 111.265 6.95444H111.734C111.869 7.5654 112.008 7.99256 112.152 8.23739C112.296 8.48148 112.515 8.68219 112.807 8.83879C113.099 8.99539 113.42 9.07406 113.769 9.07406C114.249 9.07406 114.669 8.93952 115.03 8.67043C115.392 8.40134 115.572 8.02491 115.572 7.53967C115.572 7.14412 115.442 6.79416 115.182 6.48831C114.918 6.18687 114.345 5.84573 113.464 5.46489C112.584 5.08405 111.995 4.71792 111.698 4.36795C111.401 4.0224 111.253 3.60921 111.253 3.12985C111.253 2.71078 111.372 2.31082 111.613 1.93072C111.853 1.54988 112.205 1.24918 112.671 1.02714C113.137 0.805842 113.62 0.694824 114.12 0.694824C114.722 0.694824 115.45 0.838926 116.305 1.1286C116.284 1.72265 116.274 2.0807 116.274 2.20348C116.274 2.45199 116.284 2.78724 116.305 3.21073Z" fill="#0F3E17"/>
<path fill-rule="evenodd" clip-rule="evenodd" d="M54.1968 17.0518V16.6763C55.2026 16.723 56.3105 16.746 57.5197 16.746C58.7897 16.746 60.182 16.723 61.6974 16.6763L61.8399 19.0634H61.3935C61.212 18.3883 61.0764 17.9576 60.986 17.7714C60.9253 17.6434 60.8294 17.5514 60.6978 17.494C60.5661 17.4372 60.2716 17.4081 59.8142 17.4081H56.9923C56.9665 17.9683 56.9447 19.0504 56.9276 20.6543H58.7048C59.046 20.6543 59.2681 20.6359 59.3701 20.5976C59.4714 20.5593 59.5556 20.485 59.6226 20.3746C59.6896 20.2643 59.7644 20.0137 59.8462 19.6236C59.8594 19.5516 59.8828 19.4451 59.9179 19.3056H60.3448C60.3059 20.1922 60.2864 20.7693 60.2864 21.0367C60.2864 21.1218 60.3059 21.6628 60.3448 22.6598H59.9179C59.896 22.5411 59.8812 22.4522 59.8727 22.3932C59.7815 21.8452 59.6802 21.5203 59.5673 21.4191C59.4551 21.3172 59.1652 21.2659 58.6985 21.2659H56.9276C56.9237 21.6904 56.9214 21.9747 56.9214 22.1188C56.9214 23.8124 56.9346 24.7228 56.9603 24.85C56.9775 24.9343 57.025 24.9987 57.1029 25.0409C57.2018 25.1006 57.6911 25.198 58.5715 25.3336V25.7091C57.5984 25.6624 56.898 25.6394 56.4718 25.6394L54.2092 25.7091V25.3336C54.3814 25.2999 54.51 25.2761 54.5965 25.2639C55.1161 25.1872 55.4239 25.1022 55.5205 25.0087C55.6179 24.9159 55.6662 24.7205 55.6662 24.4232L55.6981 22.6093C55.7028 22.3288 55.7044 21.7946 55.7044 21.0046C55.7044 19.0826 55.6958 17.9959 55.6787 17.7453C55.6662 17.5798 55.6226 17.4679 55.5493 17.4081C55.4543 17.3277 55.12 17.2319 54.5466 17.1215C54.4687 17.1093 54.3518 17.0855 54.1968 17.0518Z" fill="#0F3E17"/>
<path fill-rule="evenodd" clip-rule="evenodd" d="M63.9178 21.0706C63.9178 22.4154 64.222 23.4248 64.8311 24.099C65.4394 24.7732 66.2089 25.1106 67.1397 25.1106C67.7541 25.1106 68.2993 24.954 68.7753 24.6401C69.2513 24.3262 69.6117 23.8667 69.8551 23.2616C70.0999 22.6565 70.2224 21.9875 70.2224 21.2537C70.2224 20.3332 70.0665 19.5693 69.7547 18.962C69.4422 18.3548 69.0574 17.9195 68.5989 17.657C68.1396 17.3938 67.6233 17.263 67.0507 17.263C66.4234 17.263 65.8614 17.4225 65.3649 17.7423C64.8676 18.0621 64.5018 18.5246 64.2684 19.1297C64.0349 19.7348 63.9178 20.3817 63.9178 21.0706ZM62.5347 21.2508C62.5347 19.9156 62.9795 18.8194 63.8707 17.9622C64.7611 17.1049 65.9055 16.6763 67.3039 16.6763C68.605 16.6763 69.6406 17.0549 70.4109 17.8122C71.182 18.5694 71.5675 19.612 71.5675 20.939C71.5675 22.4131 71.1333 23.577 70.2665 24.4291C69.3988 25.2827 68.2575 25.7091 66.8424 25.7091C65.5162 25.7091 64.4661 25.3224 63.6935 24.5489C62.921 23.7748 62.5347 22.6756 62.5347 21.2508Z" fill="#0F3E17"/>
<path fill-rule="evenodd" clip-rule="evenodd" d="M75.5609 20.9475C75.9916 20.9942 76.3252 21.0172 76.5608 21.0172C77.3146 21.0172 77.8726 20.8456 78.2353 20.5007C78.598 20.1567 78.779 19.6785 78.779 19.0663C78.779 18.5307 78.6182 18.1077 78.2973 17.7973C77.9765 17.487 77.5098 17.3322 76.8966 17.3322C76.6775 17.3322 76.2444 17.3575 75.5983 17.4088L75.5609 20.9475ZM72.9575 17.0517V16.6763C74.0554 16.723 74.9349 16.7468 75.5983 16.7468C75.9789 16.7468 76.3349 16.7422 76.6662 16.7337C77.106 16.7169 77.4104 16.7085 77.5801 16.7085C78.3878 16.7085 78.9959 16.9039 79.4065 17.2939C79.8118 17.6885 80.0152 18.2218 80.0152 18.8923C80.0152 19.3421 79.9232 19.7398 79.7385 20.0862C79.5545 20.431 79.2883 20.7237 78.9398 20.9613C78.687 21.1306 78.3265 21.2816 77.8583 21.4134L79.9277 24.175C80.1842 24.5183 80.3458 24.7199 80.4123 24.7796C80.5155 24.8685 80.6502 24.9451 80.8162 25.0087C81.048 25.1022 81.4399 25.2103 81.9904 25.3336V25.7091C81.336 25.6616 80.8596 25.6386 80.5619 25.6386C80.2179 25.6386 79.8664 25.6616 79.5059 25.7091C79.3197 25.3911 79.0669 24.9911 78.7476 24.5091C78.429 24.0271 78.2345 23.7421 78.1635 23.6532C78.1223 23.6019 78.0827 23.549 78.0461 23.4938L76.6789 21.5712C76.3102 21.5628 75.9378 21.5352 75.5609 21.4885L75.6102 24.6969C75.6185 24.8241 75.6559 24.9191 75.7224 24.9827C75.8219 25.0685 76.1323 25.1589 76.6543 25.257C76.7291 25.27 76.8427 25.2953 76.996 25.3336V25.7091C76.2467 25.6616 75.5856 25.6386 75.0142 25.6386C74.4017 25.6386 73.7159 25.6616 72.9575 25.7091V25.3336L73.2245 25.2762C73.8176 25.1612 74.1534 25.067 74.2341 24.9926C74.3149 24.9183 74.362 24.7857 74.374 24.5949C74.383 24.4723 74.3927 23.3812 74.4054 21.323L74.3807 18.3314C74.3762 17.8732 74.365 17.6104 74.3463 17.5422C74.3276 17.474 74.2872 17.4234 74.2252 17.3897C74.0217 17.2793 73.7017 17.1881 73.2619 17.1153C73.1961 17.1031 73.0944 17.0816 72.9575 17.0517Z" fill="#0F3E17"/>
<path fill-rule="evenodd" clip-rule="evenodd" d="M85.4644 17.0518V16.6763C86.4702 16.723 87.5781 16.746 88.7873 16.746C90.0573 16.746 91.4496 16.723 92.9649 16.6763L93.1075 19.0634H92.6611C92.4796 18.3883 92.344 17.9576 92.2536 17.7714C92.1928 17.6434 92.097 17.5514 91.9653 17.494C91.8337 17.4372 91.5392 17.4081 91.0818 17.4081H88.2598C88.2341 17.9683 88.2123 19.0504 88.1952 20.6543H89.9723C90.3136 20.6543 90.5357 20.6359 90.6377 20.5976C90.739 20.5593 90.8231 20.485 90.8901 20.3746C90.9572 20.2643 91.032 20.0137 91.1138 19.6236C91.127 19.5516 91.1504 19.4451 91.1854 19.3056H91.6124C91.5734 20.1922 91.554 20.7693 91.554 21.0367C91.554 21.1218 91.5734 21.6628 91.6124 22.6598H91.1854C91.1636 22.5411 91.1488 22.4522 91.1402 22.3932C91.0491 21.8452 90.9478 21.5203 90.8348 21.4191C90.7226 21.3172 90.4328 21.2659 89.9661 21.2659H88.1952C88.1913 21.6904 88.1889 21.9747 88.1889 22.1188C88.1889 23.8124 88.2022 24.7228 88.2279 24.85C88.245 24.9343 88.2926 24.9987 88.3705 25.0409C88.4694 25.1006 88.9587 25.198 89.8391 25.3336V25.7091C88.866 25.6624 88.1656 25.6394 87.7394 25.6394L85.4768 25.7091V25.3336C85.649 25.2999 85.7776 25.2761 85.864 25.2639C86.3837 25.1872 86.6915 25.1022 86.7881 25.0087C86.8855 24.9159 86.9338 24.7205 86.9338 24.4232L86.9657 22.6093C86.9704 22.3288 86.9727 21.7946 86.9727 21.0046C86.9727 19.0826 86.9634 17.9959 86.9462 17.7453C86.9338 17.5798 86.8901 17.4679 86.8169 17.4081C86.7219 17.3277 86.3876 17.2319 85.8142 17.1215C85.7363 17.1093 85.6194 17.0855 85.4644 17.0518Z" fill="#0F3E17"/>
<path fill-rule="evenodd" clip-rule="evenodd" d="M95.4112 22.2726C95.9914 22.2892 96.4072 22.2975 96.6577 22.2975C96.7324 22.2975 97.3738 22.2892 98.5803 22.2726L96.9942 18.5174L95.4112 22.2726ZM97.0629 16.6763H97.4575C98.0219 18.1247 98.7154 19.7668 99.5386 21.6027L100.999 24.7889C101.066 24.902 101.139 24.9856 101.219 25.0399C101.273 25.0776 101.58 25.1778 102.14 25.3398V25.7091C101.38 25.6631 100.82 25.6405 100.46 25.6405C100.092 25.6405 99.4661 25.6631 98.5795 25.7091V25.3398C99.0851 25.2358 99.3801 25.1522 99.4639 25.0896C99.5476 25.0271 99.5891 24.954 99.5891 24.8703C99.5891 24.7829 99.5454 24.6345 99.4571 24.4257L98.8202 22.8989C97.9352 22.8906 97.29 22.8861 96.8863 22.8861L95.1712 22.8989L94.5118 24.4822C94.4031 24.7369 94.3495 24.8952 94.3495 24.9585C94.3495 25.0128 94.3752 25.0572 94.4273 25.0927C94.4793 25.1281 94.723 25.1921 95.1577 25.2833C95.2037 25.2961 95.2686 25.315 95.3523 25.3398V25.7091C94.637 25.6631 94.1337 25.6405 93.8417 25.6405C93.4697 25.6405 92.9928 25.6631 92.4126 25.7091V25.3398C92.7921 25.2569 93.054 25.1627 93.1958 25.0587C93.3 24.9796 93.4094 24.8455 93.5218 24.6578C93.7602 24.2441 94.3654 22.9155 95.3395 20.6704L97.0629 16.6763Z" fill="#0F3E17"/>
<path fill-rule="evenodd" clip-rule="evenodd" d="M102.835 17.0518V16.6763C103.515 16.723 104.031 16.746 104.384 16.746C104.787 16.746 105.221 16.723 105.684 16.6763C105.851 17.1215 105.984 17.4618 106.085 17.6955C106.219 18.0097 106.749 19.2006 107.674 21.2689C108.068 22.1479 108.465 23.0055 108.867 23.8415L111.47 18.1224C111.628 17.7698 111.817 17.2878 112.037 16.6763C112.582 16.723 112.999 16.746 113.287 16.746C113.556 16.746 114.009 16.723 114.648 16.6763V17.0518C114.526 17.0855 114.435 17.1093 114.373 17.1215C113.809 17.2403 113.493 17.3277 113.428 17.3828C113.322 17.4679 113.27 17.6817 113.27 18.0258V18.1086L113.245 20.1263C113.245 22.6644 113.256 24.2048 113.276 24.7481C113.28 24.8631 113.312 24.9474 113.37 25.0025C113.429 25.0577 113.775 25.1489 114.41 25.2761C114.463 25.2846 114.542 25.3037 114.648 25.3336V25.7091C113.916 25.6624 113.272 25.6394 112.715 25.6394C112.146 25.6394 111.473 25.6624 110.697 25.7091V25.3336C110.854 25.2915 110.974 25.2616 111.056 25.2447C111.552 25.1466 111.835 25.0784 111.906 25.0378C111.978 24.9972 112.025 24.9412 112.05 24.8692C112.086 24.7458 112.105 24.4025 112.105 23.8377V18.2802C111.735 19.0443 110.901 20.8842 109.6 23.7994C109.243 24.6018 108.979 25.2148 108.808 25.6394H108.461C107.552 23.5304 106.436 21.0774 105.116 18.2802L105.195 24.2132C105.195 24.6845 105.232 24.9535 105.305 25.0217C105.378 25.0891 105.685 25.1719 106.226 25.27C106.287 25.283 106.381 25.3037 106.507 25.3336V25.7091C105.803 25.6624 105.234 25.6394 104.799 25.6394C104.364 25.6394 103.789 25.6624 103.073 25.7091V25.3336C103.191 25.2999 103.279 25.2784 103.335 25.27C103.872 25.1596 104.173 25.0646 104.238 24.9834C104.335 24.8646 104.387 24.5742 104.39 24.1113L104.421 22.679C104.442 21.3716 104.451 20.1056 104.451 18.8787L104.445 18.1017C104.445 17.7928 104.427 17.5982 104.39 17.52C104.354 17.4411 104.295 17.3851 104.214 17.3506C104.059 17.287 103.713 17.2135 103.177 17.1276C103.1 17.1154 102.986 17.0901 102.835 17.0518Z" fill="#0F3E17"/>
<path fill-rule="evenodd" clip-rule="evenodd" d="M119.511 16.6763V17.0518C119.361 17.0855 119.25 17.1093 119.177 17.1223C118.608 17.2196 118.278 17.3116 118.188 17.3989C118.098 17.4855 118.053 17.6802 118.053 17.9813V18.2036L118.021 20.7632L118.04 24.4807C118.04 24.778 118.085 24.9665 118.172 25.047C118.259 25.1282 118.56 25.198 119.074 25.257C119.173 25.27 119.316 25.2953 119.505 25.3336V25.7091C118.815 25.6624 118.152 25.6394 117.514 25.6394C116.854 25.6394 116.13 25.6624 115.342 25.7091V25.3336C115.466 25.2999 115.56 25.2784 115.625 25.27C116.233 25.1727 116.581 25.0822 116.669 24.9995C116.757 24.9167 116.801 24.7083 116.801 24.3726L116.788 24.0538L116.807 21.718C116.807 19.3155 116.801 17.9875 116.788 17.7331C116.779 17.5928 116.733 17.4848 116.65 17.4081C116.567 17.3315 116.244 17.2411 115.681 17.1345C115.604 17.1177 115.492 17.0901 115.342 17.0518V16.6763C116.273 16.723 117 16.746 117.523 16.746C118.107 16.746 118.77 16.723 119.511 16.6763Z" fill="#0F3E17"/>
<path fill-rule="evenodd" clip-rule="evenodd" d="M120.901 17.0518V16.6763C121.896 16.723 122.57 16.746 122.923 16.746C123.142 16.746 123.842 16.723 125.024 16.6763V17.0518C124.293 17.1836 123.864 17.2702 123.739 17.3131C123.649 17.3422 123.584 17.389 123.544 17.4526C123.483 17.5415 123.449 17.7262 123.441 18.0066C123.432 18.2863 123.428 19.8566 123.428 22.7173C123.428 23.2813 123.434 24.0347 123.446 24.9773H126.132C126.534 24.9773 126.796 24.9512 126.918 24.9006C127.04 24.85 127.165 24.7374 127.295 24.5634C127.425 24.3895 127.669 23.9519 128.026 23.2522H128.544L128.057 24.6715C127.971 24.9343 127.868 25.2807 127.746 25.7091C126.067 25.6624 124.605 25.6394 123.359 25.6394C122.479 25.6394 121.661 25.6624 120.907 25.7091V25.3336C121.526 25.2148 121.889 25.1328 121.998 25.0884C122.107 25.0439 122.181 24.9834 122.22 24.9075C122.258 24.8309 122.277 24.6079 122.277 24.2385L122.308 20.3363L122.289 17.8219C122.289 17.6051 122.259 17.4694 122.198 17.415C122.105 17.33 121.804 17.2403 121.297 17.1468C121.207 17.1299 121.075 17.0985 120.901 17.0518Z" fill="#0F3E17"/>
<path fill-rule="evenodd" clip-rule="evenodd" d="M132.713 16.6763V17.0518C132.563 17.0855 132.452 17.1093 132.379 17.1223C131.81 17.2196 131.479 17.3116 131.39 17.3989C131.299 17.4855 131.254 17.6802 131.254 17.9813V18.2036L131.223 20.7632L131.242 24.4807C131.242 24.778 131.286 24.9665 131.374 25.047C131.461 25.1282 131.762 25.198 132.276 25.257C132.375 25.27 132.518 25.2953 132.707 25.3336V25.7091C132.017 25.6624 131.353 25.6394 130.715 25.6394C130.056 25.6394 129.332 25.6624 128.544 25.7091V25.3336C128.668 25.2999 128.763 25.2784 128.826 25.27C129.435 25.1727 129.783 25.0822 129.87 24.9995C129.958 24.9167 130.002 24.7083 130.002 24.3726L129.989 24.0538L130.009 21.718C130.009 19.3155 130.002 17.9875 129.989 17.7331C129.981 17.5928 129.935 17.4848 129.852 17.4081C129.769 17.3315 129.446 17.2411 128.883 17.1345C128.806 17.1177 128.693 17.0901 128.544 17.0518V16.6763C129.475 16.723 130.202 16.746 130.725 16.746C131.309 16.746 131.971 16.723 132.713 16.6763Z" fill="#0F3E17"/>
<path fill-rule="evenodd" clip-rule="evenodd" d="M135.945 20.6612H137.421C137.99 20.6612 138.326 20.6459 138.428 20.6137C138.529 20.5815 138.612 20.5172 138.675 20.4191C138.738 20.3217 138.816 20.0397 138.91 19.573C138.921 19.5263 138.94 19.4542 138.965 19.3562H139.367C139.322 20.0566 139.3 20.5953 139.3 20.9731C139.3 21.364 139.322 21.8989 139.367 22.5778H138.965C138.847 21.9625 138.773 21.6184 138.745 21.5464C138.704 21.4444 138.633 21.3709 138.532 21.3264C138.429 21.282 138.127 21.2597 137.623 21.2597H135.951L135.981 25.0025H138.537L138.763 24.9964C139.113 24.9964 139.333 24.9819 139.422 24.952C139.576 24.8968 139.713 24.8048 139.831 24.6746C139.949 24.5458 140.166 24.1795 140.483 23.5772C140.516 23.5174 140.565 23.4308 140.63 23.3158H141.051C141.002 23.4522 140.75 24.25 140.294 25.7091C138.814 25.6624 137.462 25.6394 136.238 25.6394C135.384 25.6394 134.441 25.6624 133.408 25.7091V25.3336L134.396 25.1106C134.555 25.0646 134.652 25.0179 134.689 24.9711C134.75 24.8907 134.78 24.7228 134.78 24.4684V24.3535L134.811 22.8576C134.815 22.5687 134.817 22.0023 134.817 21.1578C134.817 19.9317 134.813 19.0328 134.805 18.4618C134.796 17.8909 134.776 17.5675 134.743 17.4909C134.719 17.4403 134.682 17.3989 134.631 17.3667C134.58 17.3353 134.392 17.2809 134.066 17.205L133.408 17.0518V16.6763C134.172 16.723 135.085 16.746 136.147 16.746C136.728 16.746 138.111 16.723 140.294 16.6763C140.303 17.4104 140.351 18.1361 140.441 18.8534H140.014C139.851 18.2764 139.719 17.8924 139.618 17.7016C139.548 17.5698 139.463 17.4825 139.361 17.4403C139.227 17.3851 138.93 17.3575 138.471 17.3575H136.006L135.964 19.4075L135.945 20.6612Z" fill="#0F3E17"/>
<mask id="mask0_2747_2925" style="mask-type:luminance" maskUnits="userSpaceOnUse" x="142" y="16" width="6" height="10">
<path d="M142.44 16.6763H147.999V25.7091H142.44V16.6763Z" fill="white"/>
</mask>
<g mask="url(#mask0_2747_2925)">
<path fill-rule="evenodd" clip-rule="evenodd" d="M147.572 19.1922H147.108C147.003 18.6694 146.882 18.2879 146.748 18.0467C146.614 17.8056 146.41 17.6166 146.135 17.4799C145.861 17.3431 145.553 17.2747 145.211 17.2747C144.726 17.2747 144.341 17.4093 144.054 17.6784C143.768 17.9467 143.625 18.2732 143.625 18.6562C143.625 18.9944 143.742 19.29 143.978 19.5429C144.21 19.7958 144.776 20.1149 145.678 20.5001C146.58 20.8861 147.193 21.2846 147.518 21.6963C147.839 22.1124 148 22.5793 148 23.0969C148 23.5615 147.879 23.9946 147.636 24.3938C147.394 24.7938 147.03 25.1129 146.544 25.3511C146.058 25.5893 145.534 25.7091 144.973 25.7091C144.59 25.7091 144.207 25.6723 143.822 25.5988C143.438 25.5253 142.977 25.3996 142.44 25.2202C142.501 24.646 142.532 23.8843 142.532 22.9359H143.002C143.136 23.5468 143.275 23.974 143.419 24.2188C143.564 24.4629 143.782 24.6636 144.074 24.8202C144.367 24.9768 144.688 25.0555 145.036 25.0555C145.516 25.0555 145.936 24.921 146.298 24.6519C146.659 24.3828 146.84 24.0064 146.84 23.5211C146.84 23.1256 146.71 22.7756 146.45 22.4698C146.185 22.1683 145.612 21.8272 144.732 21.4463C143.851 21.0655 143.262 20.6994 142.965 20.3494C142.668 20.0038 142.52 19.5907 142.52 19.1113C142.52 18.6922 142.64 18.2923 142.88 17.9122C143.12 17.5313 143.473 17.2306 143.938 17.0086C144.404 16.7873 144.887 16.6763 145.388 16.6763C145.99 16.6763 146.718 16.8204 147.572 17.11C147.552 17.7041 147.542 18.0621 147.542 18.1849C147.542 18.4334 147.552 18.7687 147.572 19.1922Z" fill="#0F3E17"/>
</g>
<path fill-rule="evenodd" clip-rule="evenodd" d="M0 1.70547V0.694824C2.65295 0.820573 5.5725 0.882671 8.76021 0.882671C12.1071 0.882671 15.7786 0.820573 19.7746 0.694824L20.1502 7.12121H18.9732C18.4957 5.30484 18.1371 4.14515 17.8983 3.64216C17.7383 3.29984 17.4856 3.05067 17.1394 2.89698C16.7917 2.74251 16.0158 2.66489 14.8103 2.66489H7.37076C7.30275 4.17387 7.24556 7.08705 7.19997 11.406H11.8853C12.7856 11.406 13.3698 11.3547 13.638 11.2515C13.9054 11.149 14.1279 10.9488 14.3049 10.6515C14.4819 10.355 14.6781 9.68043 14.8945 8.62941C14.9293 8.43536 14.9919 8.14971 15.0831 7.77246H16.209C16.107 10.1609 16.0552 11.7141 16.0552 12.4345C16.0552 12.6627 16.107 14.1197 16.209 16.8046H15.0831C15.0259 16.4848 14.9857 16.245 14.9633 16.0851C14.7237 14.6102 14.4556 13.737 14.1596 13.463C13.8629 13.1882 13.0994 13.0516 11.8683 13.0516H7.19997C7.18915 14.1942 7.18297 14.9595 7.18297 15.3477C7.18297 19.9064 7.21775 22.3578 7.28575 22.7001C7.33134 22.9291 7.45576 23.1006 7.66132 23.2147C7.92252 23.3746 9.21306 23.637 11.5345 24.0026V25.014C8.96654 24.8883 7.12115 24.8254 5.99676 24.8254L0.0340022 25.014V24.0026C0.48685 23.9118 0.826872 23.8481 1.0533 23.814C2.42343 23.6083 3.23562 23.3801 3.49064 23.1286C3.74565 22.8771 3.87316 22.3516 3.87316 21.552L3.95817 16.6672C3.96976 15.9135 3.97517 14.4736 3.97517 12.3483C3.97517 7.17244 3.95276 4.24761 3.90716 3.57385C3.87316 3.1283 3.75956 2.82557 3.5656 2.66489C3.31599 2.44832 2.43425 2.19139 0.921151 1.89409C0.716365 1.85994 0.409572 1.79707 0 1.70547Z" fill="#0F3E17"/>
<path fill-rule="evenodd" clip-rule="evenodd" d="M24.7241 6.16265H23.582C23.9457 4.92895 24.2469 3.67755 24.4855 2.40924C25.3025 1.83238 26.1304 1.40243 26.9706 1.11862C27.8108 0.836346 28.6618 0.694824 29.5244 0.694824C30.6017 0.694824 31.5609 0.907107 32.4011 1.3309C33.2405 1.75547 33.8738 2.35463 34.2993 3.12916C34.7248 3.90445 34.9372 4.70436 34.9372 5.53042C34.9372 7.55557 33.829 9.34767 31.6126 10.909C32.8513 11.2374 33.812 11.7589 34.4947 12.4719C35.5858 13.6049 36.1311 15.0947 36.1311 16.9414C36.1311 19.3427 35.2314 21.4047 33.432 23.1261C31.6319 24.8482 29.3816 25.7088 26.6795 25.7088C25.1805 25.7088 23.6993 25.4204 22.2344 24.8428C22.5649 23.3937 22.8089 21.9216 22.968 20.4271H23.9897C24.3975 21.7408 24.9396 22.663 25.6145 23.1953C26.2895 23.7275 27.1328 23.9937 28.1429 23.9937C29.5955 23.9937 30.8041 23.4953 31.7686 22.4992C32.7331 21.5032 33.2158 20.1672 33.2158 18.4912C33.2158 16.8268 32.7038 15.5 31.6806 14.5094C30.6573 13.5187 29.2086 13.0234 27.3328 13.0234C27.1629 13.0234 26.9691 13.0288 26.7528 13.0403V11.852C28.7421 11.2744 30.1322 10.536 30.9222 9.63532C31.7122 8.73543 32.1068 7.75324 32.1068 6.68874C32.1068 5.68194 31.7949 4.87203 31.1716 4.26056C30.5477 3.6491 29.6974 3.34375 28.6194 3.34375C27.6896 3.34375 26.8787 3.60449 26.1875 4.1252C25.6771 4.5213 25.189 5.20046 24.7241 6.16265Z" fill="#0F3E17"/>
<mask id="mask1_2747_2925" style="mask-type:luminance" maskUnits="userSpaceOnUse" x="0" y="0" width="148" height="28">
<path d="M0 27.0985H148V0H0V27.0985Z" fill="white"/>
</mask>
<g mask="url(#mask1_2747_2925)">
<path fill-rule="evenodd" clip-rule="evenodd" d="M45.2261 27.0985H45.7972V0H45.2261V27.0985Z" fill="#0F3E17"/>
</g>
</g>
<defs>
<clipPath id="clip0_2747_2925">
<rect width="148" height="27.0985" fill="white"/>
</clipPath>
</defs>
</svg>
