<svg xmlns="http://www.w3.org/2000/svg" width="323" height="121" fill="none"><path fill="#fff" d="m88.642 95.194-41.035 19.28-40.92-20.485-.115-87.964h82.07z"/><path stroke="#2690CE" stroke-opacity=".12" stroke-width="3.195" d="M87.045 7.623v86.556L47.63 112.7 8.282 93.001l-.11-85.378z"/><path stroke="#2690CE" stroke-width="1.065" d="M88.11 6.558v88.299l-40.496 19.026L7.218 93.66 7.105 6.557z"/><path fill="#24223E" d="M34.282 90.836h-1.57l-1.703-6.503h1.466l1.283 5.447h-.392l1.353-5.447h1.396l1.353 5.447h-.393l1.283-5.447h1.467l-1.702 6.503H36.55l-1.361-5.237h.454zm7.57 0h-1.353v-6.503h1.353zm2.506 0h-1.353v-6.503h1.038l3.492 4.6-.559.13v-4.73h1.353v6.503h-1.047l-3.43-4.635.506-.13zm7.647 0h-1.353V85.51h-1.65v-1.178h4.627v1.178h-1.624zm6.667 0h-4.373v-6.503h4.373v1.178h-3.02v1.476h2.845v1.178h-2.845v1.492h3.02zm2.12 0h-1.354v-6.503h2.488q.507 0 .925.131.428.13.733.393.306.262.472.654.174.385.174.9 0 .672-.305 1.134a1.86 1.86 0 0 1-.82.698l1.483 2.593H63.07l-1.606-2.872.872.515h-1.545zm0-5.325v1.79h1.143q.21 0 .384-.061a1 1 0 0 0 .297-.184.75.75 0 0 0 .192-.279.9.9 0 0 0 .07-.367.9.9 0 0 0-.07-.366.67.67 0 0 0-.192-.28.8.8 0 0 0-.297-.183 1 1 0 0 0-.384-.07zm-19.108 16.325h-4.408v-1.048l1.746-1.798q.384-.393.628-.663a5 5 0 0 0 .376-.463 1.6 1.6 0 0 0 .191-.34.9.9 0 0 0 .053-.306q0-.357-.236-.558a.82.82 0 0 0-.576-.21q-.367 0-.646.21-.27.2-.401.62l-1.179-.385q.08-.383.288-.689.21-.305.507-.524.304-.218.672-.331.366-.123.76-.123.488 0 .88.131.402.132.681.376.288.236.446.576.156.33.157.742 0 .261-.07.515a2.3 2.3 0 0 1-.21.506 3.7 3.7 0 0 1-.357.523q-.21.27-.498.568l-1.492 1.536h2.688zm3.48.104q-.585 0-1.065-.235a2.5 2.5 0 0 1-.83-.681 3.4 3.4 0 0 1-.532-1.065 4.7 4.7 0 0 1-.192-1.379q0-.76.184-1.37.192-.62.532-1.056a2.4 2.4 0 0 1 .83-.681q.48-.245 1.064-.245.594 0 1.074.245.489.236.829.68.35.437.532 1.057.192.62.192 1.37t-.192 1.37q-.183.62-.532 1.065a2.4 2.4 0 0 1-.82.681q-.48.244-1.074.244m0-1.222q.306 0 .541-.139a1.2 1.2 0 0 0 .393-.419q.165-.279.244-.672a4.3 4.3 0 0 0 .087-.908q0-.497-.087-.89a2 2 0 0 0-.244-.672 1.07 1.07 0 0 0-.402-.42 1 1 0 0 0-.54-.148 1 1 0 0 0-.533.149q-.235.14-.402.419-.157.27-.244.663a4.6 4.6 0 0 0-.079.9q0 .495.079.898.087.393.253.672.165.271.402.419a1 1 0 0 0 .532.148m7.83 1.118h-4.407v-1.048l1.746-1.798q.384-.393.628-.663t.376-.463q.14-.2.192-.34a.9.9 0 0 0 .052-.306q0-.357-.236-.558a.82.82 0 0 0-.576-.21q-.367 0-.646.21-.27.2-.401.62l-1.178-.385q.078-.383.288-.689t.506-.524q.304-.218.672-.331.366-.123.76-.123.488 0 .88.131.402.132.682.376.288.236.445.576.157.33.157.742 0 .261-.07.515a2.3 2.3 0 0 1-.21.506 3.7 3.7 0 0 1-.357.523q-.21.27-.498.568l-1.492 1.536h2.688zm3.062.104q-.506 0-.934-.165a2.4 2.4 0 0 1-.733-.454 2.1 2.1 0 0 1-.48-.681 2.2 2.2 0 0 1-.166-.855q0-.228.026-.454.035-.228.122-.48.097-.255.262-.541.175-.288.445-.646l1.807-2.33h1.615l-2.191 2.8-.218-.305q.096-.043.174-.07.088-.034.166-.052a1 1 0 0 1 .175-.035 2.128 2.128 0 0 1 1.004.148 1.9 1.9 0 0 1 .654.437q.28.27.428.655.157.375.157.811 0 .48-.175.891-.165.4-.48.698a2.2 2.2 0 0 1-.733.463q-.419.165-.925.165m0-1.222q.201 0 .375-.069a.9.9 0 0 0 .507-.507q.078-.183.078-.401a.95.95 0 0 0-.078-.393.8.8 0 0 0-.201-.305.9.9 0 0 0-.306-.201 1 1 0 0 0-.375-.07q-.201 0-.375.07a.9.9 0 0 0-.306.2.9.9 0 0 0-.21.306q-.07.176-.07.393t.07.401q.08.175.21.306.131.13.306.201.174.069.375.069"/><path fill="#E5F2F9" stroke="#2690CE" stroke-width="1.065" d="M93.116 61.296V78.69H2.517V61.296z"/><path fill="#2690CE" d="M32.637 72.266h-3.938v-5.928h3.938v.955H29.78v1.52h2.697v.954H29.78v1.544h2.856zm1.748 0h-1.042v-4.329h.978v.852l-.08-.151q.152-.39.494-.59.35-.206.811-.206.36 0 .653.12a1.5 1.5 0 0 1 .859.85q.12.303.12.669v2.785h-1.043v-2.538q0-.215-.063-.382a.8.8 0 0 0-.462-.478.84.84 0 0 0-.35-.071.9.9 0 0 0-.358.071.8.8 0 0 0-.278.183.9.9 0 0 0-.175.295 1.1 1.1 0 0 0-.064.382zm5.647.047q-.74 0-1.138-.398-.398-.406-.398-1.137v-1.91h-.748v-.93h.08q.319 0 .493-.168.175-.166.175-.485v-.334h1.042v.987h.995v.93h-.995v1.854q0 .16.04.286a.5.5 0 0 0 .127.215q.096.088.231.136.136.04.334.04h.128q.071-.009.15-.025v.892l-.254.031q-.143.016-.262.016m3.327.048q-.502 0-.915-.175a2.1 2.1 0 0 1-.7-.485 2.2 2.2 0 0 1-.454-.724 2.4 2.4 0 0 1-.159-.883q0-.486.16-.891.166-.414.453-.716a2.1 2.1 0 0 1 .684-.47 2.1 2.1 0 0 1 .851-.175q.51 0 .891.175.39.168.66.454.27.285.414.668a2.3 2.3 0 0 1 .128 1.058.7.7 0 0 1-.04.199H41.99V69.6h2.753l-.493.374q.056-.27 0-.501a.9.9 0 0 0-.183-.406.84.84 0 0 0-.334-.27 1 1 0 0 0-.454-.096 1.1 1.1 0 0 0-.453.096.94.94 0 0 0-.35.278 1.2 1.2 0 0 0-.215.438q-.072.255-.048.588-.024.295.048.55.08.246.23.421.152.176.374.278.23.096.502.096.357 0 .604-.151.255-.15.398-.406l.843.414a1.5 1.5 0 0 1-.278.43 1.8 1.8 0 0 1-.414.334q-.239.135-.533.214-.294.08-.628.08m3.86-.096h-1.041v-4.328h.978v.963l-.08-.143q.152-.486.47-.676.325-.192.78-.191h.254v.923h-.374q-.445 0-.716.278-.27.27-.27.764zm2.976 1.592h-1.042v-5.92h.979v.86l-.096-.215q.223-.358.605-.549a1.95 1.95 0 0 1 .883-.19q.462 0 .86.174.397.175.691.477.295.303.462.716.167.414.167.892 0 .485-.167.898a2.1 2.1 0 0 1-1.154 1.186 2.1 2.1 0 0 1-.867.175q-.477 0-.867-.183a1.54 1.54 0 0 1-.62-.541l.166-.207zm1.21-2.45q.262 0 .485-.096t.382-.27q.167-.175.254-.414a1.4 1.4 0 0 0 .096-.525q0-.28-.096-.518a1.1 1.1 0 0 0-.254-.413 1.1 1.1 0 0 0-.39-.27 1.1 1.1 0 0 0-.477-.104q-.263 0-.486.103a1.2 1.2 0 0 0-.39.27 1.2 1.2 0 0 0-.246.414 1.5 1.5 0 0 0-.088.517q0 .279.088.526.087.239.246.413a1.17 1.17 0 0 0 .876.366m4.136.859h-1.042v-4.329h.978v.963l-.08-.143q.152-.486.47-.676.325-.192.78-.191h.254v.923h-.374q-.445 0-.716.278-.27.27-.27.764zm2.975 0h-1.042v-4.329h1.042zm0-4.814h-1.042v-1.114h1.042zm2.61 4.909q-.7 0-1.21-.326a1.7 1.7 0 0 1-.7-.9l.78-.373q.167.375.461.58a1.17 1.17 0 0 0 .923.168.8.8 0 0 0 .19-.096.41.41 0 0 0 .176-.334.34.34 0 0 0-.04-.167.4.4 0 0 0-.111-.127.5.5 0 0 0-.16-.088 2 2 0 0 0-.19-.071l-.708-.2q-.55-.158-.836-.477a1.16 1.16 0 0 1-.278-.78q0-.3.12-.54.119-.248.325-.414.215-.176.51-.27a2 2 0 0 1 .644-.104q.302 0 .573.08.278.071.509.222.23.144.398.35.166.207.27.47l-.795.374a.96.96 0 0 0-.374-.47 1.04 1.04 0 0 0-.589-.175q-.262 0-.414.12a.38.38 0 0 0-.15.31q0 .096.031.167a.5.5 0 0 0 .103.12 1 1 0 0 0 .167.087q.096.04.207.08l.693.206q.54.16.827.478.285.318.286.78 0 .294-.119.54-.12.24-.342.414a1.6 1.6 0 0 1-.517.27 2.1 2.1 0 0 1-.66.096m4.492 0q-.502 0-.915-.175a2.1 2.1 0 0 1-.7-.485 2.2 2.2 0 0 1-.454-.724 2.4 2.4 0 0 1-.159-.883q0-.486.16-.891.166-.414.453-.716a2.1 2.1 0 0 1 .684-.47 2.1 2.1 0 0 1 .851-.175q.51 0 .891.175.39.168.66.454.27.285.414.668a2.3 2.3 0 0 1 .128 1.058.7.7 0 0 1-.04.199h-3.342V69.6h2.753l-.493.374q.056-.27 0-.501a.9.9 0 0 0-.183-.406.84.84 0 0 0-.334-.27 1 1 0 0 0-.454-.096 1.1 1.1 0 0 0-.453.096.94.94 0 0 0-.35.278 1.2 1.2 0 0 0-.215.438q-.072.255-.048.588-.024.295.048.55.08.246.23.421.152.176.374.278.23.096.502.096.358 0 .604-.151.255-.15.398-.406l.844.414a1.5 1.5 0 0 1-.279.43 1.8 1.8 0 0 1-.414.334q-.239.135-.533.214-.294.08-.628.08"/><path fill="#24223E" d="M17.655 39.719h-1.623v-7.803h1.623v3.372h3.038v-3.372h1.623v7.803h-1.623v-3.017h-3.038zm7.504 0h-1.57V34h1.57zm0-6.232h-1.57v-1.571h1.57zm3.957 8.536q-.503 0-.953-.125a3.1 3.1 0 0 1-.807-.357 2.6 2.6 0 0 1-.618-.555 2.4 2.4 0 0 1-.398-.722l1.456-.514q.115.398.461.629.356.23.859.23.293 0 .524-.084.23-.083.387-.24a.9.9 0 0 0 .252-.367q.093-.22.094-.503v-1.309l.303.377a1.9 1.9 0 0 1-.754.723q-.45.23-1.079.23a2.786 2.786 0 0 1-1.99-.786 2.8 2.8 0 0 1-.576-.89 3.1 3.1 0 0 1-.199-1.12q0-.597.2-1.1a2.64 2.64 0 0 1 1.434-1.456 2.8 2.8 0 0 1 1.1-.21q.63 0 1.079.252.46.24.786.744l-.2.377V34h1.467v5.415q0 .565-.21 1.048-.21.481-.586.827-.378.346-.9.534-.514.2-1.132.2m-.052-4.011q.293 0 .534-.095.24-.093.408-.272.178-.178.273-.43a1.6 1.6 0 0 0 .094-.554q0-.304-.095-.556a1.2 1.2 0 0 0-.272-.44 1.1 1.1 0 0 0-.408-.272 1.3 1.3 0 0 0-.534-.105q-.294 0-.545.105a1.2 1.2 0 0 0-.44.283 1.3 1.3 0 0 0-.283.43 1.6 1.6 0 0 0-.094.555q0 .293.094.544.105.251.283.43.188.178.44.282.25.095.545.095m5.608 1.707H33.1V31.79h1.57v3.341l-.188-.251q.2-.514.639-.754.45-.252 1.047-.252.483 0 .88.158a1.98 1.98 0 0 1 1.132 1.12q.156.398.157.89v3.677h-1.572v-3.341q0-.252-.083-.45a.9.9 0 0 0-.21-.336.85.85 0 0 0-.335-.22 1 1 0 0 0-.419-.084q-.23 0-.43.084a.9.9 0 0 0-.324.22q-.136.137-.22.335a1.3 1.3 0 0 0-.073.45zm7.453.126q-.68 0-1.236-.23a3 3 0 0 1-.942-.65 2.9 2.9 0 0 1-.597-.953 3.2 3.2 0 0 1-.21-1.163q0-.639.22-1.183a2.9 2.9 0 0 1 .608-.943q.388-.398.91-.618.535-.23 1.143-.23.68 0 1.204.22a2.55 2.55 0 0 1 1.435 1.487 3.2 3.2 0 0 1 .168 1.445 1 1 0 0 1-.053.273h-4.284v-1.153h3.394l-.744.545a1.45 1.45 0 0 0 .032-.618 1.16 1.16 0 0 0-.21-.492 1 1 0 0 0-.387-.325 1.2 1.2 0 0 0-.555-.126q-.304 0-.556.116a1.1 1.1 0 0 0-.408.335 1.5 1.5 0 0 0-.251.544 2.4 2.4 0 0 0-.042.734q-.032.356.052.66.084.303.262.513t.45.335q.273.115.618.115.42 0 .712-.168.304-.167.472-.46l1.257.597q-.126.314-.367.576a2.3 2.3 0 0 1-.555.44q-.315.178-.712.272a3.2 3.2 0 0 1-.828.105m5.89 0q-.952 0-1.644-.44-.691-.45-.943-1.205l1.152-.544q.22.47.587.733.377.25.848.251.168 0 .293-.031a.7.7 0 0 0 .21-.105.37.37 0 0 0 .136-.157.45.45 0 0 0 .052-.22.33.33 0 0 0-.042-.168.4.4 0 0 0-.104-.136.5.5 0 0 0-.168-.105 1.5 1.5 0 0 0-.251-.094l-.974-.272q-.702-.2-1.08-.64a1.57 1.57 0 0 1-.376-1.057q0-.398.157-.723t.44-.555q.293-.24.691-.366.398-.137.88-.137.42 0 .785.105.378.094.681.294.315.188.535.47.23.273.366.63l-1.163.544a1.08 1.08 0 0 0-.46-.566 1.3 1.3 0 0 0-.744-.22q-.304 0-.482.126a.41.41 0 0 0-.167.346q0 .083.031.157a.5.5 0 0 0 .115.136q.074.063.189.115.126.053.282.105l.912.272q.723.21 1.09.64.376.418.376 1.036 0 .398-.157.733a1.7 1.7 0 0 1-.45.566q-.294.23-.702.356a3 3 0 0 1-.9.126m5.904-.063q-1.047 0-1.613-.555t-.566-1.571v-2.294h-.963V34h.052q.44 0 .67-.22.24-.219.241-.66v-.419h1.571v1.3h1.34v1.36h-1.34v2.19q0 .22.053.387a.8.8 0 0 0 .178.273q.126.105.303.157.19.052.44.052h.158a3 3 0 0 0 .209-.031v1.33q-.158.021-.356.042-.199.02-.377.02m6.751.063q-.69 0-1.278-.22a3.2 3.2 0 0 1-1.016-.629q-.419-.398-.66-.942-.24-.556-.24-1.194v-4.944h1.623v4.839q0 .345.115.65.115.293.325.512t.492.346q.294.115.64.115t.628-.115a1.5 1.5 0 0 0 .827-.859q.115-.303.115-.65v-4.838h1.624v4.944q0 .638-.241 1.194-.24.544-.67.942-.42.398-1.006.629-.587.22-1.278.22m6.605 0q-.953 0-1.644-.44-.69-.45-.943-1.205l1.153-.544q.22.47.586.733.377.25.848.251.168 0 .294-.031a.7.7 0 0 0 .21-.105.37.37 0 0 0 .135-.157.45.45 0 0 0 .053-.22.33.33 0 0 0-.042-.168.4.4 0 0 0-.105-.136.5.5 0 0 0-.167-.105 1.5 1.5 0 0 0-.252-.094l-.974-.272q-.702-.2-1.079-.64a1.57 1.57 0 0 1-.377-1.057q0-.398.157-.723.158-.324.44-.555.294-.24.691-.366.399-.137.88-.137.42 0 .786.105.377.094.68.294.315.188.535.47.23.273.366.63l-1.162.544a1.08 1.08 0 0 0-.461-.566 1.3 1.3 0 0 0-.744-.22q-.303 0-.482.126a.41.41 0 0 0-.167.346q0 .083.031.157a.5.5 0 0 0 .115.136q.074.063.189.115.126.053.283.105l.911.272q.723.21 1.09.64.376.418.376 1.036 0 .398-.157.733a1.7 1.7 0 0 1-.45.566q-.294.23-.702.356a3 3 0 0 1-.9.126m5.904 0q-.681 0-1.236-.23a3 3 0 0 1-.942-.65 2.9 2.9 0 0 1-.598-.953q-.21-.544-.209-1.163 0-.639.22-1.183a2.9 2.9 0 0 1 .607-.943q.388-.398.912-.618.534-.23 1.141-.23.681 0 1.205.22a2.55 2.55 0 0 1 1.435 1.487 3.2 3.2 0 0 1 .167 1.445 1 1 0 0 1-.052.273h-4.284v-1.153h3.394l-.744.545q.084-.336.031-.618a1.16 1.16 0 0 0-.209-.492 1 1 0 0 0-.388-.325 1.2 1.2 0 0 0-.555-.126q-.303 0-.555.116a1.1 1.1 0 0 0-.408.335 1.5 1.5 0 0 0-.252.544q-.073.315-.042.734-.03.356.053.66.084.303.262.513.177.21.45.335.273.115.618.115.42 0 .712-.168.304-.167.472-.46l1.256.597q-.125.314-.366.576a2.3 2.3 0 0 1-.555.44q-.315.178-.712.272-.388.105-.828.105m5.22-.126h-1.572V34h1.467v1.372l-.105-.199q.189-.722.618-.974a2 2 0 0 1 1.037-.262h.335V35.3h-.492q-.576 0-.932.356-.356.345-.356.985zm-52.96 12h-1.76l2.64-7.803h2.158l2.64 7.803h-1.771l-.524-1.592h-2.86zm2.179-6.693-1.205 3.687h1.959l-1.194-3.687zm6.681 6.819q-.628 0-1.163-.23a3 3 0 0 1-.932-.63 3 3 0 0 1-.607-.952 3.1 3.1 0 0 1-.22-1.173q0-.63.22-1.173.23-.546.618-.943a2.88 2.88 0 0 1 2.073-.87q.63 0 1.11.23.493.231.776.671l-.241.315v-3.3h1.571v7.929h-1.466v-1.047l.146.324q-.303.419-.796.64-.492.209-1.089.209m.189-1.414q.314 0 .576-.116a1.35 1.35 0 0 0 .764-.816q.105-.294.105-.64t-.105-.628a1.4 1.4 0 0 0-.764-.827 1.4 1.4 0 0 0-.576-.116q-.325 0-.597.116a1.4 1.4 0 0 0-.472.324q-.199.21-.314.503-.105.283-.105.629 0 .345.105.639.115.282.314.492.2.21.472.324.272.116.597.116m7.005 1.414q-.639 0-1.194-.22a3.2 3.2 0 0 1-.974-.629q-.42-.398-.66-.942a2.9 2.9 0 0 1-.24-1.194q0-.65.24-1.194.24-.546.66-.943.42-.398.974-.618.555-.23 1.194-.23.63 0 1.184.23.565.22.974.618.419.398.66.943.24.544.24 1.194 0 .648-.24 1.194-.241.544-.66.942a3 3 0 0 1-.974.629q-.555.22-1.184.22m0-1.414q.315 0 .576-.116.273-.115.461-.324.19-.21.293-.492.105-.294.105-.64t-.105-.628a1.5 1.5 0 0 0-.293-.503 1.3 1.3 0 0 0-.46-.324 1.4 1.4 0 0 0-.577-.116q-.324 0-.597.116a1.3 1.3 0 0 0-.45.324q-.189.21-.294.503-.105.283-.104.629 0 .345.104.639.105.282.294.492.188.21.45.324.272.116.597.116m5.555 3.383h-1.57V46h1.465v1.09l-.136-.315q.284-.44.765-.67.492-.23 1.12-.23.619 0 1.142.23.535.231.922.639.398.398.618.943.23.545.23 1.173 0 .629-.22 1.173-.219.544-.618.953a2.8 2.8 0 0 1-.921.628q-.534.23-1.163.23-.597 0-1.09-.209a1.94 1.94 0 0 1-.795-.639l.251-.324zm1.446-3.383q.324 0 .597-.116a1.4 1.4 0 0 0 .775-.816q.115-.294.115-.64t-.115-.628a1.389 1.389 0 0 0-.775-.827 1.5 1.5 0 0 0-.597-.116q-.314 0-.587.116a1.4 1.4 0 0 0-.46.324 1.5 1.5 0 0 0-.294.503q-.105.283-.105.629 0 .345.105.639.105.293.293.502.2.2.461.314.273.116.587.116m6.683 1.35q-1.047 0-1.613-.554-.566-.555-.566-1.571v-2.294h-.963V46h.052q.44 0 .67-.22.241-.219.241-.66v-.419h1.571v1.3h1.341v1.36h-1.34v2.19q0 .22.052.387a.8.8 0 0 0 .178.273q.126.105.304.157.188.052.44.052h.157q.093-.01.21-.031v1.33q-.158.021-.357.042-.199.02-.377.02m3.225-.062H56.83V46h1.57zm0-6.232H56.83v-1.571h1.57zm3.988 6.358q-.639 0-1.194-.22a3.2 3.2 0 0 1-.974-.629q-.42-.398-.66-.942a2.9 2.9 0 0 1-.24-1.194q0-.65.24-1.194.24-.546.66-.943.42-.398.974-.618.555-.23 1.194-.23.628 0 1.184.23.565.22.974.618.418.398.66.943.24.544.24 1.194 0 .648-.24 1.194-.242.544-.66.942a3 3 0 0 1-.974.629q-.555.22-1.184.22m0-1.414q.314 0 .576-.116.273-.115.46-.324.19-.21.294-.492.105-.294.105-.64t-.105-.628a1.5 1.5 0 0 0-.293-.503 1.3 1.3 0 0 0-.461-.324 1.4 1.4 0 0 0-.576-.116q-.326 0-.597.116a1.3 1.3 0 0 0-.45.324 1.5 1.5 0 0 0-.294.503q-.105.283-.105.629 0 .345.105.639.105.282.294.492.188.21.45.324.271.116.597.116m5.555 1.288h-1.571V46h1.466v1.131l-.084-.251a1.4 1.4 0 0 1 .64-.754q.45-.252 1.047-.252.481 0 .88.158.398.156.68.44.294.282.45.68.158.398.158.89v3.677H70.04v-3.341a1.2 1.2 0 0 0-.084-.45.9.9 0 0 0-.21-.336.85.85 0 0 0-.335-.22 1 1 0 0 0-.419-.084q-.23 0-.429.084a.9.9 0 0 0-.325.22q-.136.137-.22.335a1.3 1.3 0 0 0-.073.45z"/><path fill="#FF492C" d="M40.489 6.026h14.236v11.009c0 .27-.143.52-.376.657l-6.355 3.739a.76.76 0 0 1-.774 0l-6.356-3.739a.76.76 0 0 1-.375-.657z"/><path fill="#fff" d="M51.23 10.7h-1.413c.038-.216.175-.336.453-.474l.261-.129c.466-.232.713-.494.713-.922a.74.74 0 0 0-.32-.637 1.25 1.25 0 0 0-.761-.229 1.2 1.2 0 0 0-.645.179 1.08 1.08 0 0 0-.427.453l.41.399q.237-.467.692-.466c.256 0 .414.13.414.308 0 .15-.077.274-.372.42l-.166.078q-.545.268-.76.616c-.146.229-.22.524-.22.877v.096h2.14v-.57zm-.189 1.229H48.7l-1.17 1.973h2.341l1.17 1.975 1.172-1.975z"/><path fill="#fff" d="M47.732 15.22c-1.492 0-2.704-1.181-2.704-2.633s1.212-2.633 2.703-2.633l.927-1.886a5 5 0 0 0-.927-.088c-2.612 0-4.73 2.062-4.73 4.606s2.118 4.606 4.73 4.606a4.8 4.8 0 0 0 2.787-.884l-1.025-1.729a2.73 2.73 0 0 1-1.762.638z"/><path fill="#2690CE" d="m88.641 84.504 5.002-5.284h-5z"/><path fill="#000" fill-opacity=".45" d="m88.641 84.504 5.002-5.284h-5z"/><path fill="#2690CE" d="M6.676 84.504 1.97 79.22h4.706z"/><path fill="#000" fill-opacity=".45" d="M6.676 84.504 1.97 79.22h4.706z"/><path fill="#fff" d="M206.73 99.078 161.136 120.5l-45.468-22.762-.127-97.737h91.189z"/><path stroke="#C0AE67" stroke-opacity=".12" stroke-width="4.776" d="M204.342 2.388v95.173l-43.174 20.284-43.114-21.584-.122-93.873z"/><path stroke="#C0AE67" stroke-width="1.194" d="M206.134.597v98.1l-44.991 21.139-44.878-22.468-.126-96.771z"/><path fill="#F7F5ED" d="M108.229 37.693h106.455v16.505H108.229z"/><path stroke="#C0AE67" stroke-width="1.194" d="M108.229 37.693h106.455v16.505H108.229z"/><path fill="#C0AE67" d="M155.221 50.134h-4.42v-.91l1.786-1.865q.39-.416.645-.699.266-.282.416-.495.15-.22.212-.389.062-.176.062-.362 0-.415-.265-.654-.256-.24-.663-.239-.425 0-.734.239-.31.239-.451.716l-1.052-.327a2 2 0 0 1 .796-1.247q.3-.22.663-.336.371-.123.778-.123.477 0 .866.132.397.133.672.38.282.24.442.584.159.336.159.751 0 .265-.08.522-.07.255-.221.521-.15.266-.38.548t-.539.61l-1.547 1.627h2.855zm3.578.106q-.584 0-1.07-.238a2.55 2.55 0 0 1-.84-.69 3.4 3.4 0 0 1-.539-1.078 5 5 0 0 1-.186-1.397q0-.769.186-1.388a3.2 3.2 0 0 1 .53-1.07q.354-.45.84-.689a2.3 2.3 0 0 1 1.07-.247 2.36 2.36 0 0 1 1.918.937q.353.44.539 1.07.195.627.195 1.387t-.195 1.388a3.2 3.2 0 0 1-.539 1.078q-.345.442-.831.69a2.3 2.3 0 0 1-1.078.247m0-1.096q.344 0 .61-.159a1.4 1.4 0 0 0 .45-.45q.186-.301.283-.726.097-.432.097-.972 0-.53-.097-.955a2.3 2.3 0 0 0-.283-.724 1.3 1.3 0 0 0-.459-.46 1.16 1.16 0 0 0-.61-.16q-.327 0-.593.16t-.45.46a2.3 2.3 0 0 0-.283.715 4.3 4.3 0 0 0-.097.964q0 .53.097.964.097.423.283.724.185.292.45.46.275.16.602.16m7.955.99h-4.419v-.91l1.785-1.865q.39-.416.645-.699.266-.282.416-.495.15-.22.212-.389.062-.176.062-.362 0-.415-.265-.654-.256-.24-.663-.239-.425 0-.734.239t-.451.716l-1.052-.327a2 2 0 0 1 .796-1.247q.3-.22.663-.336.371-.123.778-.123.477 0 .866.132.397.133.672.38.283.24.442.584.159.336.159.751 0 .265-.08.522-.07.255-.221.521-.15.266-.38.548t-.539.61l-1.547 1.627h2.855zm3.118.106q-.504 0-.928-.168a2.3 2.3 0 0 1-.725-.46 2.1 2.1 0 0 1-.469-.689 2.2 2.2 0 0 1-.167-.866q0-.24.035-.477.035-.24.124-.487.096-.255.256-.539.168-.283.424-.619l1.839-2.386h1.432l-2.236 2.873-.195-.213q.098-.07.186-.115.097-.052.194-.088a1 1 0 0 1 .212-.044 1.4 1.4 0 0 1 .221-.018q.452 0 .831.16.39.158.663.441.274.275.425.663.159.381.159.822 0 .478-.168.884a2 2 0 0 1-.478.699q-.3.29-.724.46a2.4 2.4 0 0 1-.911.167m0-1.087q.23 0 .424-.08a.94.94 0 0 0 .336-.23q.15-.15.23-.344.088-.204.088-.45 0-.249-.088-.452a.9.9 0 0 0-.23-.345 1 1 0 0 0-.336-.22 1 1 0 0 0-.424-.089q-.23 0-.433.089a1.1 1.1 0 0 0-.345.22 1.1 1.1 0 0 0-.23.345 1.2 1.2 0 0 0-.079.451q0 .247.079.45.089.195.23.346.15.15.345.23.203.08.433.08"/><path fill="#3A3514" d="m115.601 61.725-7.968-6.929h7.968zM206.818 61.725l7.968-6.928h-7.968z"/><path fill="#C3B562" stroke="#C0AE67" stroke-width=".014" d="m157.666 21.969-.001 1.417h1.261l-.002 2.65-6.623-.005.002-2.65 1.188.001v-.007h.007l.003-4.017h-.007v-.007l-1.188-.001.003-2.65 5.226.005-.001 1.821.007.007.004.006.099-.103.291-.309a4 4 0 0 1 .84-.7l.285-.16c.684-.348 1.496-.496 2.482-.456.492.02.871.076 1.261.187q.885.255 1.405.812.52.556.659 1.4c.047.286.052.474.05 2.32l-.002 1.855h.008v.006l1.048.001.01-.003h.001l.014-.006-.033-.077a5 5 0 0 1-.283-1.053c-.128-.905-.013-1.835.325-2.6.566-1.278 1.785-2.206 3.454-2.626a8 8 0 0 1 1.727-.24c.772-.035 1.401.02 2.048.177 1.708.412 2.826 1.447 3.204 2.961a6 6 0 0 1 .12.662l.002.052-.001.012-.001.001-.859.092c-1.152.126-1.828.2-2.215.241l-.389.041-.077.007h-.016l-.001.002v-.014l-.004-.048-.013-.152v-.001c-.043-.541-.143-.945-.315-1.236a1.17 1.17 0 0 0-.75-.552c-.116-.03-.164-.034-.412-.033-.252 0-.299.005-.443.038-.429.101-.716.316-.912.683a2.4 2.4 0 0 0-.209.622c-.094.505-.111 1.57-.036 2.14.055.419.167.76.328.997.062.092.205.24.297.308.171.127.428.224.694.26.102.013.248.015.39.01.142-.007.28-.022.365-.044.493-.129.826-.413.983-.844.047-.13.088-.349.088-.472v-.076l3.557.003-.001.03-.012.17a4.324 4.324 0 0 1-.535 1.481c-.569.93-1.519 1.54-2.812 1.806-.426.088-.807.13-1.374.154-1.204.051-2.407-.147-3.38-.556-1.087-.456-1.913-1.178-2.383-2.082l-.101-.192h-.015l-.003 2.607-6.479-.006.002-2.652 1.233-.003h.007l-.006-3.031v-.002l-.032-.115c-.122-.436-.439-.717-.93-.823a2 2 0 0 0-.386-.033 2 2 0 0 0-.378.027c-.695.149-1.157.603-1.33 1.305a1.7 1.7 0 0 0-.021.299c-.004.178-.005.468-.007.96Zm0 0-.001.124.001-.328zm-5.826 4.061.002-2.65h-1.592v-.007h-.006l.005-6.681h.007v-.008l1.592.002.002-2.851-8.481-.007-.003 2.85 1.592.002v.008h.007l-.006 6.68h-.006v.007l-1.592-.001-.002 2.65zm25.996.055c.106 0 .211-.005.266-.017.486-.1.867-.387 1.08-.81a1.5 1.5 0 0 0-.302-1.752 1.5 1.5 0 0 0-.762-.399 1.5 1.5 0 0 0-.282-.02c-.111 0-.221.007-.284.02a1.5 1.5 0 0 0-.755.398 1.48 1.48 0 0 0-.46 1.155c.037.7.528 1.261 1.235 1.408.054.011.159.017.264.017Z"/><path fill="#3A3514" d="m140.464 73.843-2.386-.002.009-11.47 4.403.004q.894 0 1.632.233a3.6 3.6 0 0 1 1.293.693q.539.463.83 1.156.307.677.307 1.586-.001.877-.309 1.57a3.3 3.3 0 0 1-.848 1.138 3.75 3.75 0 0 1-1.294.707 5.4 5.4 0 0 1-1.616.23l-2.017-.002zm.008-9.391-.003 3.156 2.033.002q.37 0 .677-.108.308-.123.524-.322.231-.216.339-.493a1.7 1.7 0 0 0 .124-.646q0-.354-.123-.647a1.2 1.2 0 0 0-.338-.493 1.4 1.4 0 0 0-.524-.324 1.8 1.8 0 0 0-.677-.123zm11.306 9.585a4.7 4.7 0 0 1-1.755-.325 4.6 4.6 0 0 1-1.431-.925 4.3 4.3 0 0 1-.969-1.386 4.3 4.3 0 0 1-.352-1.755q0-.956.355-1.755.355-.8.971-1.385.617-.585 1.433-.907a4.5 4.5 0 0 1 1.755-.337q.924 0 1.739.34.832.324 1.431.91a4.25 4.25 0 0 1 1.322 3.141 4.3 4.3 0 0 1-.356 1.755q-.354.8-.971 1.385-.6.585-1.432.922a4.7 4.7 0 0 1-1.74.322m.002-2.078q.462 0 .846-.169.4-.17.678-.477.278-.308.432-.723.154-.43.155-.939 0-.508-.154-.924a2.2 2.2 0 0 0-.43-.74 1.9 1.9 0 0 0-.677-.477 2.1 2.1 0 0 0-.847-.17q-.477 0-.877.169a1.9 1.9 0 0 0-.663.476 2.2 2.2 0 0 0-.431.74 2.6 2.6 0 0 0-.155.923q0 .507.153.939.154.415.431.724.276.307.661.478.4.17.878.17m9.922 1.901-2.002-.001-2.887-8.408 2.386.002 2.028 6.067-.832-.016 2.268-6.049 2.002.002 2.242 6.052-.831.015 2.037-6.064 2.402.002-2.917 8.403-2.001-.001-2.335-6.5.801.001zm13.722.196a4.7 4.7 0 0 1-1.816-.34 4.4 4.4 0 0 1-1.385-.956 4.2 4.2 0 0 1-.876-1.401 4.7 4.7 0 0 1-.307-1.71 4.6 4.6 0 0 1 .325-1.739q.324-.8.894-1.385t1.34-.907a4.2 4.2 0 0 1 1.678-.337q1.002 0 1.771.325a3.75 3.75 0 0 1 2.107 2.188 4.7 4.7 0 0 1 .245 2.124 1.5 1.5 0 0 1-.078.4l-6.296-.005.001-1.693 4.988.004-1.094.8q.124-.494.047-.909a1.7 1.7 0 0 0-.307-.724 1.44 1.44 0 0 0-.569-.477 1.74 1.74 0 0 0-.816-.186q-.447 0-.816.169a1.6 1.6 0 0 0-.601.492 2.2 2.2 0 0 0-.37.8 3.6 3.6 0 0 0-.063 1.078q-.046.523.077.97.122.447.384.755a1.9 1.9 0 0 0 .661.493q.4.17.909.17.615 0 1.047-.246.446-.246.693-.676l1.847.879q-.186.462-.54.846a3.4 3.4 0 0 1-.816.646 4 4 0 0 1-1.047.4 4.7 4.7 0 0 1-1.217.152m7.672-.178-2.309-.002.007-8.406 2.155.002-.002 2.017-.153-.293q.278-1.062.909-1.431.648-.384 1.525-.384h.492l-.001 2.002h-.724q-.846 0-1.37.522-.525.507-.525 1.447zM136.964 88.84l-2.386-.002.009-11.47 4.403.004q.893 0 1.632.233a3.6 3.6 0 0 1 1.293.694q.538.462.83 1.155.307.677.307 1.586-.001.877-.31 1.57a3.24 3.24 0 0 1-.847 1.138q-.54.462-1.294.707a5.4 5.4 0 0 1-1.617.23l-2.016-.002zm.008-9.39-.003 3.155 2.032.002q.37 0 .678-.107.308-.123.524-.323.231-.216.339-.493.123-.292.123-.646a1.6 1.6 0 0 0-.122-.647 1.2 1.2 0 0 0-.339-.493 1.4 1.4 0 0 0-.523-.323 1.8 1.8 0 0 0-.677-.124zm9.57 9.583q-.678 0-1.231-.17a2.8 2.8 0 0 1-.924-.479 2.2 2.2 0 0 1-.584-.754 2.6 2.6 0 0 1-.2-1.032q.001-.54.186-.97.184-.446.555-.784.369-.339.924-.57.57-.245 1.324-.368l2.572-.413-.002 1.693-2.155.383q-.493.093-.755.323-.262.216-.262.63 0 .401.276.617.293.2.739.2.432 0 .77-.137a1.9 1.9 0 0 0 .601-.4q.261-.246.401-.585a1.9 1.9 0 0 0 .139-.723l.002-2.186q0-.479-.385-.801-.369-.324-1.016-.324-.63 0-1.093.337a1.96 1.96 0 0 0-.678.893l-1.847-.88q.186-.522.54-.938.355-.43.832-.723a4.1 4.1 0 0 1 1.093-.445 4.6 4.6 0 0 1 1.263-.169q.8 0 1.462.233.662.216 1.139.616t.738.97q.261.555.261 1.233l-.005 5.542-2.155-.002.001-1.355.524-.092a4.3 4.3 0 0 1-.601.723 3.2 3.2 0 0 1-.694.508q-.369.2-.816.292a3.9 3.9 0 0 1-.939.107m8.683-.178-2.309-.002.007-8.406 2.155.002-.002 2.017-.153-.293q.278-1.062.909-1.43.648-.386 1.525-.384h.492l-.001 2.001h-.724q-.846 0-1.37.522-.525.507-.525 1.447zm7.979.099q-1.539 0-2.37-.818-.83-.816-.83-2.31l.003-3.371-1.416-.002.001-2.001h.077q.647 0 .986-.322.354-.324.355-.97v-.616l2.31.002-.002 1.91h1.971l-.002 2.002-1.971-.001-.002 3.217q0 .323.076.57.093.23.262.4.185.155.446.231.277.078.647.078h.23q.14-.015.308-.046l-.001 1.956q-.231.03-.524.06-.292.031-.554.031m4.74-.088-2.309-.002.007-8.406 2.155.002-.001 1.662-.123-.37q.293-.753.94-1.107.663-.37 1.54-.368.708 0 1.293.232.585.231 1 .647.431.416.661 1.001t.23 1.31l-.004 5.403-2.31-.002.004-4.911a1.7 1.7 0 0 0-.122-.662 1.3 1.3 0 0 0-.308-.493 1.25 1.25 0 0 0-.492-.324 1.5 1.5 0 0 0-.616-.123q-.339 0-.631.122-.277.108-.478.323a1.5 1.5 0 0 0-.323.493 1.9 1.9 0 0 0-.109.661zm10.956.193a4.7 4.7 0 0 1-1.816-.34 4.4 4.4 0 0 1-1.385-.956q-.57-.6-.877-1.401a4.7 4.7 0 0 1-.306-1.71q0-.939.325-1.739.324-.8.894-1.385t1.34-.907a4.2 4.2 0 0 1 1.678-.337q1 0 1.77.325a3.75 3.75 0 0 1 2.108 2.187 4.7 4.7 0 0 1 .244 2.125q-.015.23-.077.4l-6.297-.005.002-1.693 4.988.004-1.094.8q.123-.493.047-.909a1.7 1.7 0 0 0-.307-.724 1.44 1.44 0 0 0-.57-.477 1.73 1.73 0 0 0-.815-.186q-.447 0-.816.169a1.6 1.6 0 0 0-.601.492 2.2 2.2 0 0 0-.37.8 3.6 3.6 0 0 0-.063 1.078q-.047.523.076.97.123.448.385.754.26.309.661.494.4.17.908.17.617 0 1.047-.246.447-.246.694-.677l1.847.88q-.186.461-.54.846a3.4 3.4 0 0 1-.816.646 4 4 0 0 1-1.048.4q-.57.153-1.216.152m7.672-.178-2.309-.002.007-8.406 2.155.002-.002 2.017-.153-.293q.278-1.062.909-1.431.647-.384 1.524-.384h.493l-.002 2.002h-.723q-.847-.001-1.371.522-.524.507-.524 1.447z"/><path fill="#fff" d="m315.923 95.194-41.035 19.28-40.92-20.485-.115-87.964h82.07z"/><path stroke="#5A39A2" stroke-opacity=".12" stroke-width="4.299" d="M313.774 8.174V93.83l-38.856 18.257-38.803-19.426-.109-84.486z"/><path stroke="#5A39A2" stroke-width="1.075" d="M315.386 6.563v88.29l-40.49 19.024-40.392-20.22-.112-87.094z"/><path fill="#24223E" d="M261.564 90.835h-1.571l-1.702-6.503h1.466l1.283 5.447h-.393L262 84.332h1.397l1.353 5.447h-.393l1.283-5.447h1.466l-1.702 6.503h-1.571l-1.362-5.237h.454zm7.569 0h-1.353v-6.503h1.353zm2.506 0h-1.353v-6.503h1.039l3.491 4.6-.558.131v-4.73h1.353v6.502h-1.048l-3.43-4.635.506-.13zm7.648 0h-1.353v-5.324h-1.65v-1.179h4.626v1.179h-1.623zm6.666 0h-4.373v-6.503h4.373v1.179h-3.02v1.475h2.846v1.178h-2.846v1.493h3.02zm2.12 0h-1.353v-6.503h2.488q.506 0 .925.131.427.132.733.393.306.262.471.655.175.384.175.899 0 .672-.306 1.134a1.85 1.85 0 0 1-.82.699l1.484 2.592h-1.519l-1.606-2.872.873.515h-1.545zm0-5.324V87.3h1.143q.21 0 .384-.061a.9.9 0 0 0 .297-.183.8.8 0 0 0 .192-.28.9.9 0 0 0 .07-.366.9.9 0 0 0-.07-.367.7.7 0 0 0-.192-.28.8.8 0 0 0-.297-.183 1 1 0 0 0-.384-.07zm-19.108 16.324h-4.407v-1.047l1.745-1.798q.384-.393.629-.664.245-.27.375-.462.14-.201.192-.34a.9.9 0 0 0 .052-.306q0-.358-.235-.559a.82.82 0 0 0-.576-.21q-.367 0-.646.21-.27.2-.402.62l-1.178-.384q.078-.384.288-.69t.506-.523q.306-.22.672-.332.367-.123.76-.122.489 0 .881.13.402.132.681.376.288.236.445.576.157.331.157.742 0 .261-.069.515a2.4 2.4 0 0 1-.21.506 3.6 3.6 0 0 1-.358.524q-.209.27-.497.567l-1.493 1.536h2.688zm3.48.105q-.584 0-1.064-.236a2.5 2.5 0 0 1-.83-.681 3.4 3.4 0 0 1-.532-1.065 4.7 4.7 0 0 1-.192-1.379q0-.76.183-1.37.192-.62.533-1.056a2.37 2.37 0 0 1 1.894-.925q.593 0 1.073.244.49.236.83.68.349.438.532 1.057.192.62.192 1.37t-.192 1.37q-.184.621-.532 1.065a2.332 2.332 0 0 1-1.895.926m0-1.222q.306 0 .542-.14.236-.148.392-.419.166-.279.245-.672.087-.401.087-.908 0-.497-.087-.89a2 2 0 0 0-.245-.672 1.07 1.07 0 0 0-.401-.419 1 1 0 0 0-.541-.148 1 1 0 0 0-.533.148 1.16 1.16 0 0 0-.401.419 2.3 2.3 0 0 0-.245.663 4.7 4.7 0 0 0-.078.9q0 .496.078.898.088.393.254.672.165.271.401.419a1 1 0 0 0 .532.149m7.831 1.117h-4.407v-1.047l1.745-1.798q.384-.393.629-.664.245-.27.375-.462.14-.201.192-.34a.9.9 0 0 0 .052-.306q0-.358-.235-.559a.82.82 0 0 0-.576-.21q-.367 0-.646.21-.27.2-.402.62l-1.178-.384q.078-.384.288-.69t.506-.523q.306-.22.672-.332.367-.123.76-.122.489 0 .881.13.402.132.681.376.288.236.445.576.157.331.157.742 0 .261-.069.515a2.4 2.4 0 0 1-.21.506 3.6 3.6 0 0 1-.358.524q-.209.27-.497.567l-1.493 1.536h2.688zm3.062.105q-.507 0-.934-.166a2.4 2.4 0 0 1-.734-.454 2.1 2.1 0 0 1-.48-.681 2.2 2.2 0 0 1-.165-.855q0-.228.026-.454a3 3 0 0 1 .122-.48 4 4 0 0 1 .262-.541q.175-.289.445-.646l1.807-2.33h1.614l-2.19 2.801-.219-.305q.097-.045.175-.07.087-.034.166-.052a1 1 0 0 1 .174-.035q.088-.01.175-.01.453 0 .829.158.384.157.655.436.279.27.427.655.158.374.158.812 0 .48-.175.89a2 2 0 0 1-.48.698 2.2 2.2 0 0 1-.733.463q-.42.165-.925.166m0-1.222q.2 0 .375-.07a.9.9 0 0 0 .506-.506 1 1 0 0 0 .079-.402.95.95 0 0 0-.079-.393.8.8 0 0 0-.201-.305.9.9 0 0 0-.305-.2 1 1 0 0 0-.375-.07q-.2 0-.376.07a.9.9 0 0 0-.305.2.9.9 0 0 0-.21.305 1.1 1.1 0 0 0-.07.393q0 .218.07.402.079.174.21.305a.9.9 0 0 0 .305.201q.175.07.376.07"/><path fill="#EBE7F4" stroke="#5A39A2" stroke-width="1.075" d="M320.402 61.29v17.405h-90.608V61.29z"/><path fill="#5A39A2" d="m234.025 85.396-4.794-6.18h4.793z"/><path fill="#000" fill-opacity=".45" d="m234.025 85.396-4.794-6.18h4.793z"/><path fill="#5A39A2" d="m315.924 85.397 5.029-6.18h-5.028z"/><path fill="#000" fill-opacity=".45" d="m315.924 85.397 5.029-6.18h-5.028z"/><path fill="#5A39A2" d="M259.617 72.231h-3.938v-5.927h3.938v.955h-2.856v1.52h2.697v.954h-2.697v1.543h2.856zm1.748 0h-1.042v-4.328h.978v.851l-.079-.15q.15-.39.493-.59.35-.206.811-.206.358 0 .653.12a1.5 1.5 0 0 1 .859.85q.119.303.119.669v2.784h-1.042v-2.538q0-.214-.064-.382a.78.78 0 0 0-.461-.477.84.84 0 0 0-.35-.072.9.9 0 0 0-.358.072.8.8 0 0 0-.279.183.9.9 0 0 0-.175.294 1.1 1.1 0 0 0-.063.382zm5.647.048q-.74 0-1.138-.398-.398-.406-.398-1.138v-1.909h-.748v-.93h.08q.318 0 .493-.168.175-.167.175-.485v-.334h1.042v.986h.995v.931h-.995v1.854q0 .159.04.286a.5.5 0 0 0 .127.215.7.7 0 0 0 .231.135q.135.04.334.04h.127a2 2 0 0 0 .152-.024v.891l-.255.032q-.143.016-.262.016m3.327.048q-.501 0-.915-.175a2.1 2.1 0 0 1-.7-.486 2.2 2.2 0 0 1-.454-.724 2.4 2.4 0 0 1-.159-.883q0-.485.159-.89.168-.415.454-.717.294-.302.684-.47.398-.174.851-.174.51 0 .891.175.39.167.66.453.272.287.414.669a2.3 2.3 0 0 1 .127 1.058.7.7 0 0 1-.039.199h-3.342v-.796h2.753l-.493.374q.055-.27 0-.501a.9.9 0 0 0-.183-.406.85.85 0 0 0-.334-.27 1 1 0 0 0-.454-.096q-.246 0-.453.096a.93.93 0 0 0-.35.278 1.15 1.15 0 0 0-.215.438q-.072.254-.048.588-.024.294.048.55.08.246.23.42.152.175.374.28.23.095.502.095.357 0 .604-.151.255-.151.398-.406l.843.413a1.4 1.4 0 0 1-.278.43 1.9 1.9 0 0 1-.414.334q-.239.135-.533.215t-.628.08m3.861-.096h-1.043v-4.328h.979v.963l-.08-.143q.152-.486.47-.677.326-.19.779-.19h.255v.922h-.374q-.446 0-.716.279-.27.27-.27.764zm2.975 1.591h-1.042v-5.919h.979v.86l-.096-.215q.223-.358.605-.55.381-.19.883-.19.461 0 .859.175t.692.477.462.716.167.891q0 .485-.167.9a2.1 2.1 0 0 1-1.154 1.185 2.1 2.1 0 0 1-.867.175q-.477 0-.867-.183a1.54 1.54 0 0 1-.621-.541l.167-.207zm1.21-2.45q.262 0 .485-.096.223-.095.382-.27.167-.175.254-.414.096-.239.096-.525 0-.278-.096-.517a1.1 1.1 0 0 0-.254-.414 1.1 1.1 0 0 0-.39-.27 1.1 1.1 0 0 0-.477-.103q-.263 0-.486.103a1.2 1.2 0 0 0-.39.27 1.2 1.2 0 0 0-.246.414 1.4 1.4 0 0 0-.088.517q0 .278.088.525.087.24.246.414a1.18 1.18 0 0 0 .876.366m4.136.86h-1.043v-4.329h.979v.963l-.08-.143q.152-.486.47-.677.326-.19.779-.19h.255v.922h-.374q-.446 0-.716.279-.27.27-.27.764zm2.975 0h-1.042v-4.329h1.042zm0-4.814h-1.042v-1.114h1.042zm2.609 4.909q-.7-.001-1.209-.326a1.7 1.7 0 0 1-.7-.9l.78-.373q.167.373.461.58a1.17 1.17 0 0 0 .923.167.8.8 0 0 0 .191-.095.42.42 0 0 0 .175-.334.33.33 0 0 0-.04-.167.4.4 0 0 0-.111-.128.5.5 0 0 0-.159-.087 2 2 0 0 0-.191-.072l-.708-.199q-.55-.159-.836-.477a1.16 1.16 0 0 1-.278-.78 1.2 1.2 0 0 1 .445-.954q.215-.175.509-.27.295-.105.645-.104.302 0 .573.08.278.07.509.222.23.144.398.35.167.207.27.47l-.795.373a.96.96 0 0 0-.374-.469 1.04 1.04 0 0 0-.589-.175q-.262 0-.414.12a.38.38 0 0 0-.151.31q0 .095.032.167a.5.5 0 0 0 .103.12q.072.046.167.087t.207.08l.692.206q.541.159.828.477.286.319.286.78 0 .294-.119.541-.12.24-.342.414a1.6 1.6 0 0 1-.517.27 2.1 2.1 0 0 1-.661.096m4.493 0q-.501 0-.915-.175a2.1 2.1 0 0 1-.7-.486 2.2 2.2 0 0 1-.454-.724 2.4 2.4 0 0 1-.159-.883q0-.485.159-.89.168-.415.454-.717.294-.302.684-.47.398-.174.851-.174.51 0 .891.175.39.167.66.453.272.287.414.669a2.3 2.3 0 0 1 .127 1.058.7.7 0 0 1-.039.199h-3.342v-.796h2.753l-.493.374q.055-.27 0-.501a.9.9 0 0 0-.183-.406.85.85 0 0 0-.334-.27 1 1 0 0 0-.454-.096q-.246 0-.453.096a.93.93 0 0 0-.35.278 1.15 1.15 0 0 0-.215.438q-.072.254-.048.588-.024.294.048.55.08.246.23.42.152.175.374.28.23.095.502.095.357 0 .604-.151.255-.151.398-.406l.843.413a1.4 1.4 0 0 1-.278.43 1.9 1.9 0 0 1-.414.334q-.239.135-.533.215t-.628.08"/><path fill="#24223E" d="M267.372 39.718h-3.3v-7.803h3.3a3.4 3.4 0 0 1 1.078.157q.482.157.807.45.335.294.503.723.178.42.178.953 0 .525-.283.985-.273.461-.932.775v-.796q.46.189.754.419.303.23.471.503.178.271.241.576.073.303.073.628 0 .576-.199 1.027-.198.45-.576.764a2.5 2.5 0 0 1-.9.482 4.3 4.3 0 0 1-1.215.157m-1.676-3.456v2.042h1.864q.492 0 .786-.272.293-.283.293-.744 0-.471-.293-.743-.294-.283-.786-.283zm0-2.985v1.57h1.791q.376 0 .597-.209a.76.76 0 0 0 .23-.576.73.73 0 0 0-.23-.565q-.22-.22-.597-.22zm8.247 6.567q-.681 0-1.236-.23a3 3 0 0 1-.942-.65 2.8 2.8 0 0 1-.597-.953q-.21-.544-.21-1.163 0-.639.22-1.183.22-.545.608-.943.387-.397.911-.618.534-.23 1.142-.23.68 0 1.204.22a2.56 2.56 0 0 1 1.435 1.487 3.2 3.2 0 0 1 .168 1.445 1 1 0 0 1-.053.273h-4.284v-1.152h3.394l-.744.544q.084-.335.032-.618a1.16 1.16 0 0 0-.21-.492 1 1 0 0 0-.387-.325 1.2 1.2 0 0 0-.555-.125 1.3 1.3 0 0 0-.556.115q-.24.115-.408.335a1.5 1.5 0 0 0-.251.545q-.073.315-.042.733a1.9 1.9 0 0 0 .052.66q.084.303.262.513.179.21.45.335.273.115.618.115.42 0 .712-.167.304-.168.472-.461l1.257.597q-.126.314-.367.576a2.4 2.4 0 0 1-.555.44q-.315.179-.712.272a3.2 3.2 0 0 1-.828.105m5.89 0q-.953 0-1.644-.44a2.26 2.26 0 0 1-.943-1.205l1.152-.544q.22.47.587.733.377.252.848.251.168 0 .293-.031a.7.7 0 0 0 .21-.105.37.37 0 0 0 .136-.157.44.44 0 0 0 .052-.22.33.33 0 0 0-.042-.167.4.4 0 0 0-.104-.137.5.5 0 0 0-.168-.104 1.5 1.5 0 0 0-.251-.095l-.974-.272q-.702-.2-1.079-.639a1.57 1.57 0 0 1-.377-1.058q0-.398.157-.722.157-.325.44-.556.293-.24.691-.366.398-.136.88-.136.419 0 .785.104a2.2 2.2 0 0 1 .681.294q.315.187.534.471.23.273.367.628l-1.163.545a1.07 1.07 0 0 0-.46-.566 1.3 1.3 0 0 0-.744-.22q-.304 0-.482.126a.4.4 0 0 0-.167.346q0 .084.031.157a.5.5 0 0 0 .115.136q.074.063.189.115.125.052.282.105l.912.273q.723.21 1.089.638.377.42.377 1.037 0 .399-.157.733a1.7 1.7 0 0 1-.45.566q-.294.23-.702.356a3 3 0 0 1-.901.126m5.904-.063q-1.048 0-1.613-.555-.566-.555-.566-1.571V35.36h-.963v-1.362h.052q.44 0 .67-.22.241-.219.241-.66v-.418h1.571v1.298h1.341v1.362h-1.341v2.19q0 .219.053.387a.8.8 0 0 0 .178.272q.125.105.303.157.19.052.44.052h.157a3 3 0 0 0 .21-.031v1.33q-.158.021-.356.042-.2.021-.377.021M260.38 51.718h-5.247v-7.803h5.247v1.414h-3.624v1.77h3.415v1.414h-3.415v1.791h3.624zm3.047.126q-.954 0-1.645-.44a2.26 2.26 0 0 1-.943-1.205l1.153-.544q.22.47.586.733.377.252.849.251.167 0 .293-.031a.7.7 0 0 0 .209-.105.36.36 0 0 0 .136-.157.45.45 0 0 0 .053-.22.33.33 0 0 0-.042-.167.4.4 0 0 0-.105-.137.5.5 0 0 0-.167-.104 1.5 1.5 0 0 0-.252-.095l-.974-.272q-.702-.2-1.079-.639a1.57 1.57 0 0 1-.377-1.058q0-.398.157-.722.158-.325.44-.556.293-.24.692-.366.397-.135.879-.136.42 0 .786.104.376.095.681.294.314.187.534.471.23.273.367.628l-1.163.545a1.08 1.08 0 0 0-.461-.566 1.3 1.3 0 0 0-.744-.22q-.303 0-.481.126a.41.41 0 0 0-.168.346q0 .084.031.157a.5.5 0 0 0 .116.136q.073.063.188.115.126.052.283.105l.911.273q.723.21 1.089.638.378.42.378 1.037 0 .399-.158.733a1.65 1.65 0 0 1-.45.566 2.1 2.1 0 0 1-.702.356 3 3 0 0 1-.9.126m5.903-.063q-1.047 0-1.613-.555-.565-.555-.565-1.571V47.36h-.964v-1.362h.052q.44 0 .671-.22.24-.219.241-.66v-.418h1.571v1.298h1.34v1.362h-1.34v2.19q0 .219.052.387a.8.8 0 0 0 .178.272q.126.105.304.157.188.052.44.052h.157q.095-.01.209-.031v1.33a13 13 0 0 1-.356.042q-.198.021-.377.021m4-.063h-1.571v-1.57h1.571zm5.55 0h-1.623v-7.803h2.985q.607 0 1.11.157.514.157.88.471.366.315.566.786.209.46.209 1.079 0 .806-.367 1.361a2.2 2.2 0 0 1-.984.838l1.78 3.111h-1.822l-1.927-3.446 1.047.618h-1.854zm0-6.389v2.147h1.372q.252 0 .461-.073.21-.084.356-.22a.9.9 0 0 0 .231-.335 1.1 1.1 0 0 0 .084-.44q0-.24-.084-.44a.8.8 0 0 0-.231-.335.9.9 0 0 0-.356-.22 1.2 1.2 0 0 0-.461-.084zm9.27 6.515a4.4 4.4 0 0 1-1.645-.304 4.2 4.2 0 0 1-1.309-.848 3.9 3.9 0 0 1-.869-1.278 4.1 4.1 0 0 1-.315-1.603q0-.858.315-1.592a3.8 3.8 0 0 1 .869-1.278q.555-.544 1.309-.848a4.4 4.4 0 0 1 1.645-.304q.89 0 1.644.304t1.309.848q.555.536.87 1.278.314.735.314 1.592 0 .86-.314 1.603-.315.733-.87 1.278-.555.534-1.319.848a4.3 4.3 0 0 1-1.634.304m0-1.467q.534 0 .995-.188t.796-.524a2.5 2.5 0 0 0 .523-.817q.2-.471.199-1.037 0-.565-.199-1.036a2.4 2.4 0 0 0-.523-.807 2.4 2.4 0 0 0-.796-.524 2.6 2.6 0 0 0-.995-.188q-.534 0-.995.188a2.4 2.4 0 0 0-.796.524 2.5 2.5 0 0 0-.535.806q-.188.472-.188 1.037 0 .566.188 1.037.2.472.535.817.334.336.796.524.46.188.995.188m6.912 1.341h-1.624v-7.803h1.624z"/><path fill="#FF492C" d="M267.77 6.025h14.236v11.009c0 .27-.143.52-.375.657l-6.356 3.739a.76.76 0 0 1-.773 0l-6.356-3.739a.76.76 0 0 1-.376-.657z"/><path fill="#fff" d="M278.512 10.7h-1.413c.038-.216.175-.336.453-.474l.261-.13c.465-.232.713-.494.713-.922a.74.74 0 0 0-.321-.637 1.25 1.25 0 0 0-.761-.228q-.351-.001-.644.178a1.07 1.07 0 0 0-.428.453l.41.4q.237-.468.692-.466c.257 0 .414.129.414.307 0 .15-.076.274-.371.42l-.167.079q-.544.267-.76.615-.218.345-.219.878v.095h2.14v-.57zm-.189 1.228h-2.342l-1.17 1.974h2.342l1.17 1.974 1.171-1.974z"/><path fill="#fff" d="M275.013 15.219c-1.491 0-2.704-1.181-2.704-2.633s1.213-2.632 2.704-2.632l.926-1.886a5 5 0 0 0-.926-.089c-2.613 0-4.731 2.062-4.731 4.606s2.118 4.606 4.731 4.606a4.8 4.8 0 0 0 2.786-.883l-1.025-1.73a2.74 2.74 0 0 1-1.761.638z"/></svg>